<svg width="151" height="46" viewBox="0 0 151 46" fill="none" xmlns="http://www.w3.org/2000/svg">
<path fill-rule="evenodd" clip-rule="evenodd" d="M93.8597 35.3508C85.1433 41.775 72.5082 45.2039 61.6332 45.2039C46.3777 45.2039 32.648 39.5625 22.2582 30.1805C21.4425 29.4422 22.1738 28.4367 23.1535 29.0086C34.3636 35.5336 48.2269 39.457 62.5449 39.457C72.2011 39.457 82.8253 37.4601 92.5917 33.314C94.0683 32.6859 95.3035 34.2797 93.8597 35.3508Z" fill="#FF9900"/>
<path fill-rule="evenodd" clip-rule="evenodd" d="M97.4832 31.2047C96.3746 29.7797 90.1191 30.532 87.3113 30.8648C86.4558 30.9679 86.3269 30.225 87.0957 29.6883C92.0785 26.182 100.253 27.1945 101.205 28.3711C102.159 29.5523 100.959 37.7461 96.2761 41.6578C95.5589 42.2578 94.8722 41.939 95.1933 41.1422C96.2433 38.5172 98.6011 32.6343 97.4855 31.2047" fill="#FF9900"/>
<path fill-rule="evenodd" clip-rule="evenodd" d="M87.5082 4.93594V1.52813C87.5082 1.0125 87.8996 0.665625 88.3683 0.665625H103.628C104.118 0.665625 104.51 1.01719 104.51 1.52813V4.44609C104.503 4.93828 104.093 5.57578 103.361 6.58828L95.4535 17.8781C98.3925 17.8078 101.493 18.2437 104.158 19.7461C104.758 20.0836 104.922 20.5805 104.967 21.0703V24.7078C104.967 25.2047 104.418 25.7859 103.844 25.4836C99.1496 23.0227 92.9128 22.7555 87.7238 25.5094C87.1941 25.7977 86.6386 25.2234 86.6386 24.7266V21.2719C86.6386 20.7188 86.6457 19.7719 87.2011 18.9281L96.3605 5.79141H88.3894C87.8972 5.79141 87.5082 5.44453 87.5082 4.93594ZM31.8441 26.2031H27.2035C26.7582 26.1703 26.4066 25.8375 26.3738 25.4133V1.58672C26.3738 1.11094 26.7722 0.73125 27.2667 0.73125H31.5957C32.0457 0.75 32.4066 1.09688 32.4394 1.52813V4.64062H32.5238C33.6535 1.63125 35.7722 0.229687 38.6316 0.229687C41.5378 0.229687 43.3542 1.63125 44.6597 4.64297C45.7847 1.63125 48.3347 0.229687 51.0722 0.229687C53.0175 0.229687 55.148 1.03125 56.4464 2.83359C57.916 4.8375 57.616 7.75078 57.616 10.3031L57.6089 25.3406C57.6089 25.8164 57.2105 26.2031 56.7136 26.2031H52.08C51.616 26.1703 51.2433 25.7977 51.2433 25.3406V12.7125C51.2433 11.707 51.3347 9.19922 51.1121 8.24766C50.7675 6.64687 49.7292 6.19688 48.3839 6.19688C47.2589 6.19688 46.0871 6.94688 45.6089 8.14922C45.1308 9.34922 45.1777 11.3602 45.1777 12.7125V25.3406C45.1777 25.8164 44.7793 26.2031 44.2824 26.2031H39.6464C39.1777 26.1703 38.8121 25.7977 38.8121 25.3406L38.805 12.7125C38.805 10.0547 39.241 6.14531 35.9457 6.14531C32.6082 6.14531 32.7394 9.95625 32.7394 12.7125V25.3406C32.7394 25.8164 32.341 26.2031 31.8441 26.2031ZM117.646 0.229687C124.537 0.229687 128.264 6.14531 128.264 13.6664C128.264 20.932 124.143 26.6977 117.646 26.6977C110.882 26.6977 107.2 20.782 107.2 13.4109C107.2 5.99297 110.927 0.229687 117.646 0.229687ZM117.686 5.09297C114.264 5.09297 114.049 9.75703 114.049 12.6609C114.049 15.5719 114.002 21.7875 117.646 21.7875C121.244 21.7875 121.415 16.7719 121.415 13.718C121.415 11.707 121.331 9.30469 120.721 7.39687C120.201 5.73984 119.163 5.09297 117.686 5.09297ZM137.196 26.2031H132.574C132.11 26.1703 131.737 25.7977 131.737 25.3406L131.73 1.50937C131.77 1.07109 132.157 0.73125 132.625 0.73125H136.928C137.334 0.75 137.667 1.02422 137.758 1.39688V5.04141H137.843C139.141 1.78125 140.964 0.229687 144.171 0.229687C146.252 0.229687 148.284 0.979687 149.589 3.03516C150.803 4.94531 150.803 8.14922 150.803 10.4531V25.4531C150.752 25.8703 150.365 26.2031 149.908 26.2031H145.253C144.829 26.1703 144.475 25.8562 144.431 25.4531V12.5086C144.431 9.90234 144.731 6.08906 141.525 6.08906C140.395 6.08906 139.357 6.84609 138.841 7.99687C138.189 9.45234 138.103 10.9031 138.103 12.5086V25.3383C138.098 25.8141 137.693 26.2008 137.196 26.2008V26.2031ZM75.3441 14.8219C75.3441 16.6313 75.391 18.1383 74.4769 19.7437C73.7363 21.0516 72.5621 21.8531 71.2613 21.8531C69.48 21.8531 68.4347 20.4937 68.4347 18.4922C68.4347 14.5336 71.9808 13.8164 75.3441 13.8164V14.8219ZM80.0246 26.1375C79.7199 26.4117 79.2746 26.4305 78.9277 26.2477C77.3878 24.968 77.1066 24.3727 76.2628 23.1539C73.7175 25.7531 71.9082 26.5289 68.6105 26.5289C64.7011 26.5289 61.6636 24.1195 61.6636 19.2938C61.6636 15.5273 63.7027 12.9609 66.6136 11.707C69.1332 10.5961 72.6535 10.4016 75.3441 10.0945V9.49453C75.3441 8.39062 75.4285 7.08516 74.7746 6.13125C74.2121 5.27578 73.1292 4.92422 72.1707 4.92422C70.4011 4.92422 68.8261 5.83125 68.4417 7.71328C68.3621 8.12813 68.0574 8.54062 67.6308 8.55937L63.1332 8.07656C62.7535 7.99219 62.3292 7.68516 62.4417 7.10391C63.473 1.64531 68.4089 0 72.8246 0C75.0816 0 78.0324 0.6 79.816 2.31094C82.0753 4.42031 81.8597 7.23281 81.8597 10.2961V17.5312C81.8597 19.7062 82.7597 20.6602 83.6105 21.8344C83.9035 22.2516 83.9691 22.7555 83.5894 23.0695C82.6425 23.8594 80.9574 25.3266 80.0316 26.1492L80.0246 26.1375ZM14.4816 14.8219C14.4816 16.6313 14.5285 18.1383 13.6144 19.7437C12.8761 21.0516 11.7066 21.8531 10.4035 21.8531C8.61987 21.8531 7.58159 20.4937 7.58159 18.4922C7.58159 14.5336 11.1253 13.8164 14.4816 13.8164V14.8219ZM19.1644 26.1375C18.8574 26.4117 18.4144 26.4305 18.0675 26.2477C16.5253 24.968 16.2511 24.3727 15.4027 23.1539C12.8574 25.7531 11.055 26.5289 7.75034 26.5289C3.84565 26.5289 0.803467 24.1195 0.803467 19.2938C0.803467 15.5273 2.84722 12.9609 5.75347 11.707C8.273 10.5961 11.7933 10.4016 14.4816 10.0945V9.49453C14.4816 8.39062 14.5683 7.08516 13.9191 6.13125C13.3519 5.27578 12.2691 4.92422 11.3175 4.92422C9.54565 4.92422 7.96597 5.83125 7.58159 7.71328C7.5019 8.12813 7.19487 8.54062 6.77769 8.55937L2.273 8.07656C1.89331 7.99219 1.47612 7.6875 1.58159 7.10391C2.61753 1.64531 7.54878 0 11.9644 0C14.2214 0 17.1722 0.6 18.9558 2.31094C21.2152 4.42031 20.9996 7.23281 20.9996 10.2961V17.5312C20.9996 19.7062 21.8996 20.6602 22.748 21.8344C23.048 22.2516 23.1136 22.7555 22.7363 23.0695C21.7894 23.8594 20.1042 25.3266 19.1761 26.1492L19.1644 26.1375Z" fill="black"/>
</svg>
