<svg width="39" height="31" viewBox="0 0 39 31" fill="none" xmlns="http://www.w3.org/2000/svg">
<path d="M37.1773 1.02735C36.3213 0.29275 35.209 -0.07245 34.0842 0.01195C32.9595 0.09635 31.914 0.623351 31.1773 1.47735L16.6773 18.2973C16.5173 18.4825 16.3204 18.6325 16.0992 18.7372C15.878 18.842 15.6374 18.8996 15.3927 18.9062C15.148 18.9128 14.9047 18.8683 14.6782 18.7755C14.4517 18.6827 14.247 18.5437 14.0773 18.3673L7.42729 11.3673C7.04829 10.9407 6.58729 10.5949 6.07179 10.3503C5.55629 10.1058 4.99679 9.96745 4.42669 9.94375C3.85659 9.91995 3.28749 10.0113 2.75349 10.2122C2.21939 10.4131 1.73129 10.7195 1.31819 11.1131C0.905094 11.5068 0.575494 11.9796 0.349094 12.5033C0.122594 13.0271 0.00389429 13.591 9.42856e-05 14.1616C-0.00370571 14.7322 0.107395 15.2977 0.326795 15.8244C0.546194 16.3511 0.869494 16.8283 1.27729 17.2274L12.4973 29.0174C12.8951 29.4337 13.3731 29.7653 13.9024 29.9922C14.4317 30.219 15.0014 30.3364 15.5773 30.3374H15.6773C16.2703 30.322 16.8536 30.1823 17.3893 29.9274C17.925 29.6725 18.4013 29.3079 18.7873 28.8574L37.6173 7.02735C38.3531 6.17265 38.7199 5.06115 38.6374 3.93645C38.555 2.81165 38.0299 1.76555 37.1773 1.02735ZM35.7273 5.39735L16.8973 27.2274C16.7379 27.4123 16.5418 27.5619 16.3214 27.6669C16.1011 27.7719 15.8613 27.83 15.6173 27.8374C15.3726 27.8496 15.1282 27.8076 14.9018 27.7142C14.6753 27.6208 14.4722 27.4785 14.3073 27.2973L3.08729 15.5373C2.76779 15.1998 2.59479 14.7497 2.60609 14.285C2.61729 13.8204 2.81179 13.3791 3.14729 13.0574C3.48219 12.7481 3.92139 12.5768 4.37729 12.5774C4.60769 12.582 4.83509 12.6319 5.04609 12.7246C5.25719 12.8173 5.4479 12.9507 5.6073 13.1173L12.2473 20.1173C12.6561 20.5479 13.1505 20.8881 13.6988 21.1159C14.2471 21.3437 14.837 21.454 15.4305 21.4398C16.0241 21.4257 16.6081 21.2875 17.1449 21.0338C17.6817 20.7802 18.1594 20.4168 18.5473 19.9673L33.0773 3.10735C33.3025 2.84595 33.6 2.65695 33.9323 2.56415C34.2646 2.47135 34.617 2.47875 34.9451 2.58565C35.2731 2.69255 35.5623 2.89405 35.7762 3.16475C35.9901 3.43555 36.1192 3.76345 36.1473 4.10735C36.1809 4.57565 36.0301 5.03855 35.7273 5.39735Z" fill="#727376"/>
</svg>
