<svg width="66" height="56" viewBox="0 0 66 56" fill="none" xmlns="http://www.w3.org/2000/svg">
<path d="M40.2344 55.9102V38.0391C40.2344 31.7891 41.2435 26.1576 43.2617 21.1445C45.2799 16.0664 47.5911 11.737 50.1953 8.15625C52.8646 4.57552 55.1432 1.90625 57.0312 0.148438L64.9414 4.44531C63.444 6.20312 61.6211 8.51432 59.4727 11.3789C57.3893 14.2435 55.5339 17.5312 53.9062 21.2422C52.3438 24.888 51.5625 28.8594 51.5625 33.1562H65.332V55.9102H40.2344ZM0 55.9102V38.0391C0 31.7891 1.00911 26.1576 3.02734 21.1445C5.04557 16.0664 7.35677 11.737 9.96094 8.15625C12.6302 4.57552 14.9089 1.90625 16.7969 0.148438L24.707 4.44531C23.2096 6.20312 21.3867 8.51432 19.2383 11.3789C17.1549 14.2435 15.2995 17.5312 13.6719 21.2422C12.1094 24.888 11.3281 28.8594 11.3281 33.1562H25.0977V55.9102H0Z" fill="#0068C8"/>
</svg>
