<svg width="143" height="59" viewBox="0 0 143 59" fill="none" xmlns="http://www.w3.org/2000/svg">
<path d="M49.7031 24V12.7031H54.1875C55.2344 12.7031 56.0703 12.8724 56.6953 13.2109C57.3203 13.5443 57.7708 13.9974 58.0469 14.5703C58.3281 15.1432 58.4688 15.7891 58.4688 16.5078V20.2344C58.4688 21.4583 58.1146 22.3932 57.4062 23.0391C56.7031 23.6797 55.6354 24 54.2031 24H49.7031ZM51.2812 22.8281H54.0469C54.5885 22.8281 55.0729 22.7708 55.5 22.6562C55.9323 22.5365 56.2734 22.3021 56.5234 21.9531C56.7734 21.6042 56.8984 21.0833 56.8984 20.3906V16.4141C56.8984 15.7161 56.7708 15.1875 56.5156 14.8281C56.2656 14.4635 55.9245 14.2161 55.4922 14.0859C55.0651 13.9505 54.5833 13.8828 54.0469 13.8828H51.2812V22.8281ZM63.6372 24.1719C62.9601 24.1719 62.4106 24.0599 61.9888 23.8359C61.5721 23.612 61.2674 23.3151 61.0747 22.9453C60.882 22.5755 60.7856 22.1719 60.7856 21.7344V15.7188H62.2544V21.7422C62.2544 22.1536 62.4054 22.474 62.7075 22.7031C63.0096 22.9323 63.4158 23.0469 63.9263 23.0469C64.645 23.0469 65.1789 22.8906 65.5278 22.5781C65.8768 22.2656 66.0513 21.9349 66.0513 21.5859V15.7188H67.52V24H66.2075L66.0513 22.9609C65.8429 23.3307 65.5382 23.625 65.1372 23.8438C64.7414 24.0625 64.2414 24.1719 63.6372 24.1719ZM69.9463 15.7188H71.415V16.8906C71.5348 16.5781 71.7509 16.3281 72.0634 16.1406C72.3811 15.9479 72.7405 15.8099 73.1416 15.7266C73.5426 15.6432 73.9254 15.6016 74.29 15.6016L74.2431 16.8594C73.7744 16.8594 73.3239 16.9245 72.8916 17.0547C72.4593 17.1797 72.1051 17.3438 71.8291 17.5469C71.553 17.75 71.415 17.9688 71.415 18.2031V24H69.9463V15.7188ZM77.8803 24.1719C77.2709 24.1719 76.7735 24.0677 76.3881 23.8594C76.0079 23.6458 75.7267 23.3672 75.5444 23.0234C75.3673 22.6745 75.2787 22.3021 75.2787 21.9062C75.2787 21.4896 75.3595 21.1406 75.5209 20.8594C75.6876 20.5729 75.9975 20.3151 76.4506 20.0859C76.909 19.8516 77.5782 19.6068 78.4584 19.3516C78.9168 19.2161 79.284 19.0964 79.56 18.9922C79.836 18.888 80.0366 18.7552 80.1616 18.5938C80.2866 18.4323 80.3491 18.2005 80.3491 17.8984C80.3491 17.6745 80.3126 17.4714 80.2397 17.2891C80.172 17.1068 80.0287 16.9609 79.81 16.8516C79.5965 16.7422 79.2683 16.6875 78.8256 16.6875C78.2735 16.6875 77.8699 16.7448 77.6147 16.8594C77.3595 16.974 77.1954 17.125 77.1225 17.3125C77.0548 17.4948 77.0209 17.6979 77.0209 17.9219V18.2891H75.6069V17.9141C75.6069 17.0964 75.8803 16.5 76.4272 16.125C76.9741 15.75 77.7892 15.5625 78.8725 15.5625C79.9662 15.5625 80.7293 15.8177 81.1616 16.3281C81.5991 16.8385 81.8178 17.5208 81.8178 18.375V21.9062C81.8178 22.3438 81.8725 22.625 81.9819 22.75C82.0965 22.875 82.3308 22.9375 82.685 22.9375L82.5131 24.0625H82.2162C81.6642 24.0625 81.2657 23.9557 81.0209 23.7422C80.7761 23.5234 80.5912 23.2188 80.4662 22.8281C80.3465 23.0156 80.1798 23.2135 79.9662 23.4219C79.7579 23.6302 79.4845 23.8073 79.1459 23.9531C78.8126 24.099 78.3907 24.1719 77.8803 24.1719ZM78.06 23.0781C78.3569 23.0781 78.6668 23.0156 78.9897 22.8906C79.3126 22.7604 79.5991 22.5911 79.8491 22.3828C80.1043 22.1693 80.2709 21.9349 80.3491 21.6797V19.5C80.2345 19.6146 80.034 19.7656 79.7475 19.9531C79.4662 20.1354 79.0626 20.3021 78.5366 20.4531C77.8959 20.6354 77.4246 20.8229 77.1225 21.0156C76.8256 21.2083 76.6772 21.4896 76.6772 21.8594C76.6772 22.276 76.784 22.5833 76.9975 22.7812C77.2162 22.9792 77.5704 23.0781 78.06 23.0781ZM84.9316 21.6328V16.8281H83.5488V15.7188H84.9863L85.1659 13.1562H86.4003V15.7188H88.4784V16.8281H86.4003V21.5391C86.4003 22.0859 86.5618 22.4375 86.8847 22.5938C87.2076 22.75 87.718 22.8281 88.4159 22.8281H88.58L88.4238 24.0625H88.205C87.0748 24.0625 86.2467 23.8854 85.7206 23.5312C85.1946 23.1771 84.9316 22.5443 84.9316 21.6328ZM90.5531 15.7188H92.0219V24H90.5531V15.7188ZM90.5297 12.2422H92.0453V13.8672H90.5297V12.2422ZM97.7059 24.1719C96.8778 24.1719 96.2111 24.0599 95.7059 23.8359C95.2059 23.6068 94.8414 23.2943 94.6122 22.8984C94.3882 22.5026 94.2762 22.0495 94.2762 21.5391V18.2031C94.2762 17.6927 94.3882 17.2396 94.6122 16.8438C94.8414 16.4427 95.2059 16.1302 95.7059 15.9062C96.2111 15.6771 96.8778 15.5625 97.7059 15.5625C98.5289 15.5625 99.1903 15.6771 99.6903 15.9062C100.196 16.1302 100.563 16.4427 100.792 16.8438C101.021 17.2396 101.136 17.6927 101.136 18.2031V21.5391C101.136 22.0495 101.021 22.5026 100.792 22.8984C100.563 23.2943 100.196 23.6068 99.6903 23.8359C99.1903 24.0599 98.5289 24.1719 97.7059 24.1719ZM97.7059 23.0469C98.2789 23.0469 98.7476 22.9453 99.1122 22.7422C99.482 22.5339 99.6669 22.1745 99.6669 21.6641V18.0781C99.6669 17.5677 99.482 17.2083 99.1122 17C98.7476 16.7917 98.2789 16.6875 97.7059 16.6875C97.1226 16.6875 96.6486 16.7917 96.2841 17C95.9247 17.2083 95.745 17.5677 95.745 18.0781V21.6641C95.745 22.1745 95.9247 22.5339 96.2841 22.7422C96.6486 22.9453 97.1226 23.0469 97.7059 23.0469ZM103.265 15.7188H104.734V16.5234C104.979 16.2422 105.299 16.013 105.695 15.8359C106.091 15.6536 106.588 15.5625 107.187 15.5625C107.869 15.5625 108.416 15.6745 108.827 15.8984C109.244 16.1172 109.546 16.4115 109.734 16.7812C109.921 17.1458 110.015 17.5469 110.015 17.9844V24H108.546V17.8984C108.546 17.487 108.385 17.1823 108.062 16.9844C107.739 16.7865 107.322 16.6875 106.812 16.6875C106.093 16.6875 105.567 16.8229 105.234 17.0938C104.9 17.3646 104.734 17.7005 104.734 18.1016V24H103.265V15.7188Z" fill="#727376"/>
<path d="M50.1533 54L49.8369 52.0137L54.6445 47.6807C55.1016 47.2705 55.4561 46.9072 55.708 46.5908C55.96 46.2744 56.1357 45.9639 56.2354 45.6592C56.3408 45.3486 56.3936 45.0088 56.3936 44.6396C56.3936 44.0361 56.2412 43.5732 55.9365 43.251C55.6318 42.9229 55.1162 42.7588 54.3896 42.7588C53.5576 42.7588 52.9688 42.9434 52.623 43.3125C52.2773 43.6816 52.1045 44.3379 52.1045 45.2812H49.4238C49.4238 43.7344 49.793 42.6006 50.5312 41.8799C51.2754 41.1533 52.5234 40.79 54.2754 40.79C55.3887 40.79 56.2852 40.9629 56.9648 41.3086C57.6445 41.6484 58.1396 42.1084 58.4502 42.6885C58.7666 43.2627 58.9248 43.9072 58.9248 44.6221C58.9248 45.5771 58.6963 46.4092 58.2393 47.1182C57.7822 47.8213 57.1113 48.5508 56.2266 49.3066L53.0801 52.0049H58.7051V54H50.1533ZM67.3145 54V51.5215H61.4346V49.333L65.3809 41.0273H68.0616L64.2823 49.3594H67.3145V46.4238H69.3975V49.3594H71.5069V51.5215H69.3975V54H67.3145ZM76.2804 44.5605H78.5128L80.2003 51.3193L82.1779 44.5605H84.1202L86.1593 51.4072L87.7325 44.5605H89.9562L87.4425 54H85.1046L83.171 47.4873L81.1583 54H78.8907L76.2804 44.5605ZM90.9103 51.0469V47.3643C90.9103 46.4033 91.2736 45.6621 92.0002 45.1406C92.7326 44.6191 93.7111 44.3584 94.9357 44.3584C96.3888 44.3584 97.4201 44.6367 98.0295 45.1934C98.6447 45.75 98.9523 46.5029 98.9523 47.4521V49.7373H93.3009V51.2754C93.3009 51.832 93.4445 52.1836 93.7316 52.3301C94.0187 52.4707 94.4464 52.541 95.0148 52.541C95.6945 52.541 96.1486 52.4473 96.3771 52.2598C96.6115 52.0664 96.7287 51.6797 96.7287 51.0996H98.9435C98.9435 52.2656 98.6154 53.0742 97.9591 53.5254C97.3029 53.9766 96.3068 54.2021 94.9709 54.2021C94.2033 54.2021 93.5119 54.1084 92.8966 53.9209C92.2814 53.7275 91.7951 53.4023 91.4377 52.9453C91.0861 52.4883 90.9103 51.8555 90.9103 51.0469ZM96.6935 48.2783V47.1709C96.6935 46.8193 96.6173 46.5645 96.465 46.4062C96.3185 46.2422 96.1164 46.1396 95.8586 46.0986C95.6066 46.0518 95.3195 46.0283 94.9972 46.0283C94.5168 46.0283 94.1125 46.1016 93.7843 46.248C93.4621 46.3887 93.3009 46.7109 93.3009 47.2148V48.2783H96.6935ZM100.478 51.0469V47.3643C100.478 46.4033 100.841 45.6621 101.568 45.1406C102.3 44.6191 103.279 44.3584 104.503 44.3584C105.956 44.3584 106.987 44.6367 107.597 45.1934C108.212 45.75 108.52 46.5029 108.52 47.4521V49.7373H102.868V51.2754C102.868 51.832 103.012 52.1836 103.299 52.3301C103.586 52.4707 104.014 52.541 104.582 52.541C105.262 52.541 105.716 52.4473 105.945 52.2598C106.179 52.0664 106.296 51.6797 106.296 51.0996H108.511C108.511 52.2656 108.183 53.0742 107.527 53.5254C106.87 53.9766 105.874 54.2021 104.538 54.2021C103.771 54.2021 103.079 54.1084 102.464 53.9209C101.849 53.7275 101.362 53.4023 101.005 52.9453C100.654 52.4883 100.478 51.8555 100.478 51.0469ZM106.261 48.2783V47.1709C106.261 46.8193 106.185 46.5645 106.032 46.4062C105.886 46.2422 105.684 46.1396 105.426 46.0986C105.174 46.0518 104.887 46.0283 104.565 46.0283C104.084 46.0283 103.68 46.1016 103.352 46.248C103.029 46.3887 102.868 46.7109 102.868 47.2148V48.2783H106.261ZM110.379 40.6758H112.77V48.709L116.505 44.5605H119.23L115.679 48.6299L119.388 54H116.778L113.824 49.6318L112.77 50.7129V54H110.379V40.6758ZM119.911 53.4639L120.395 51.8379C120.899 52.0547 121.426 52.2275 121.977 52.3564C122.533 52.4795 123.043 52.541 123.506 52.541C123.94 52.541 124.262 52.4385 124.473 52.2334C124.684 52.0225 124.789 51.7354 124.789 51.3721C124.789 51.0967 124.728 50.8828 124.605 50.7305C124.488 50.5723 124.283 50.4463 123.99 50.3525L121.915 49.7021C121.171 49.4678 120.658 49.1221 120.377 48.665C120.102 48.208 119.964 47.6631 119.964 47.0303C119.964 46.1279 120.281 45.457 120.913 45.0176C121.552 44.5781 122.366 44.3584 123.357 44.3584C124.165 44.3584 124.851 44.4434 125.413 44.6133C125.976 44.7832 126.427 44.9648 126.767 45.1582L126.204 46.6436C126.023 46.5439 125.783 46.4473 125.484 46.3535C125.185 46.2598 124.866 46.1836 124.526 46.125C124.192 46.0605 123.875 46.0283 123.576 46.0283C123.073 46.0283 122.727 46.1162 122.539 46.292C122.352 46.4678 122.258 46.7109 122.258 47.0215C122.258 47.2207 122.305 47.3965 122.399 47.5488C122.492 47.6953 122.659 47.8066 122.9 47.8828L124.851 48.498C125.648 48.75 126.201 49.1016 126.512 49.5527C126.823 50.0039 126.978 50.5986 126.978 51.3369C126.978 52.1338 126.697 52.8105 126.134 53.3672C125.572 53.9238 124.725 54.2021 123.594 54.2021C122.797 54.2021 122.106 54.1406 121.52 54.0176C120.94 53.9004 120.404 53.7158 119.911 53.4639Z" fill="black"/>
<path d="M3.5 31.7032H0V35.2258H28V31.7032H24.5V25.6902L16.4745 17.6129L24.5 9.53562V3.52258H28V0H0V3.52258H3.5V9.53562L11.5255 17.6129L3.5 25.6902V31.7032ZM7 8.07728V3.52258H21V8.07728L14 15.1224L7 8.07728ZM14 20.1034L21 27.1485V31.7032H7V27.1485L14 20.1034Z" fill="#727376"/>
</svg>
