<svg width="150" height="50" viewBox="0 0 150 50" fill="none" xmlns="http://www.w3.org/2000/svg">
<path d="M64.1915 26.0483C64.1915 33.1698 58.6341 38.4185 51.8141 38.4185C44.9942 38.4185 39.4368 33.1721 39.4368 26.0483C39.4368 18.8775 44.9942 13.6805 51.8141 13.6805C58.6341 13.6805 64.1915 18.8799 64.1915 26.0483ZM58.7726 26.0483C58.7726 21.5995 55.5527 18.5552 51.8141 18.5552C48.0756 18.5552 44.8557 21.5995 44.8557 26.0483C44.8557 30.4548 48.0756 33.5438 51.8141 33.5438C55.5527 33.5438 58.7726 30.4501 58.7726 26.0483Z" fill="#EA4335"/>
<path d="M90.8942 26.0483C90.8942 33.1698 85.3368 38.4185 78.5168 38.4185C71.6968 38.4185 66.1394 33.1721 66.1394 26.0483C66.1394 18.8822 71.6968 13.6805 78.5168 13.6805C85.3368 13.6805 90.8942 18.8799 90.8942 26.0483ZM85.4752 26.0483C85.4752 21.5995 82.2553 18.5552 78.5168 18.5552C74.7782 18.5552 71.556 21.5995 71.556 26.0483C71.556 30.4548 74.7782 33.5438 78.5168 33.5438C82.2553 33.5438 85.4752 30.4501 85.4752 26.0483Z" fill="#FBBC05"/>
<path d="M116.484 14.4287V36.6328C116.484 45.7681 111.11 49.4994 104.757 49.4994C98.7773 49.4994 95.1772 45.4905 93.8207 42.2109L98.5379 40.2418C99.3781 42.2556 101.436 44.6294 104.75 44.6294C108.817 44.6294 111.338 42.1145 111.338 37.381V35.6024H111.15C109.937 37.101 107.599 38.4138 104.649 38.4138C98.4816 38.4138 92.8303 33.0262 92.8303 26.093C92.8303 19.1128 98.4816 13.6805 104.651 13.6805C107.594 13.6805 109.932 14.991 111.148 16.4472H111.335V14.4334H116.484V14.4287ZM111.72 26.093C111.72 21.7407 108.824 18.5552 105.135 18.5552C101.396 18.5552 98.2657 21.7383 98.2657 26.093C98.2657 30.4054 101.396 33.5438 105.135 33.5438C108.824 33.5438 111.72 30.4054 111.72 26.093Z" fill="#4285F4"/>
<path d="M124.966 1.41162V37.661H119.681V1.41162H124.966Z" fill="#34A853"/>
<path d="M145.56 30.1207L149.765 32.9298C148.409 34.9436 145.137 38.4114 139.486 38.4114C132.476 38.4114 127.242 32.9815 127.242 26.0436C127.242 18.6893 132.523 13.6758 138.881 13.6758C145.283 13.6758 148.414 18.7811 149.439 21.543L150 22.9476L133.506 29.7961C134.769 32.2781 136.733 33.5438 139.486 33.5438C142.246 33.5438 144.159 32.184 145.56 30.1207ZM132.617 25.6696L143.642 21.0819C143.034 19.5363 141.211 18.4587 139.064 18.4587C136.311 18.4587 132.476 20.8961 132.617 25.6696Z" fill="#EA4335"/>
<path d="M19.4321 22.8323V17.5859H37.0711C37.2448 18.4988 37.334 19.581 37.334 20.7526C37.334 24.6885 36.2591 29.5561 32.7998 33.0263C29.4344 36.5387 25.1349 38.4138 19.4368 38.4138C8.8782 38.4138 0 29.7914 0 19.2069C0 8.6224 8.8782 0 19.4368 0C25.2805 0 29.4391 2.29852 32.5651 5.29343L28.8735 8.99647C26.6299 6.88851 23.5931 5.24872 19.4321 5.24872C11.7226 5.24872 5.69115 11.4785 5.69115 19.2069C5.69115 26.9353 11.7226 33.1651 19.4321 33.1651C24.4332 33.1651 27.2823 31.1512 29.1058 29.3232C30.5844 27.8411 31.5583 25.7213 31.9432 22.8252L19.4321 22.8323Z" fill="#4285F4"/>
</svg>
