<svg width="51" height="30" viewBox="0 0 51 30" fill="none" xmlns="http://www.w3.org/2000/svg">
<path d="M50.198 8.51742L25.5155 0.0667161C25.2482 -0.0222387 24.9809 -0.0222387 24.7136 0.0667161C13.9762 4.15864 2.25871 8.38399 1.18943 8.42846C0.654789 8.42846 0.164703 8.82876 0.0310427 9.36249C-0.102617 9.89622 0.209256 10.4744 0.699342 10.6968L7.15957 13.4989V16.6123C6.22395 16.7902 5.55565 17.6353 5.55565 18.5693C5.55565 19.0141 5.68931 19.4589 5.95663 19.7702L5.11012 24.7517C5.06556 24.9741 5.15467 25.1964 5.28833 25.3299C5.42199 25.5078 5.64476 25.5967 5.86752 25.5967H9.34268C9.56544 25.5967 9.74366 25.5078 9.87732 25.3299C10.011 25.152 10.1001 24.9741 10.0555 24.7517L9.34268 19.5923C9.52089 19.2809 9.61 18.9251 9.61 18.5693C9.61 17.8577 9.20902 17.1905 8.62983 16.8347L8.80804 14.2105L12.9515 15.9896V27.02C12.9515 28.6657 14.2881 30 15.9366 30H36.743C38.3914 30 39.728 28.6657 39.728 27.02V15.278L50.2871 10.6968C50.7327 10.5189 51 10.0741 51 9.58488C51 9.09563 50.6881 8.65085 50.198 8.51742ZM6.71404 24.1735L7.47144 19.6812C7.51599 19.4144 7.42689 19.1475 7.20412 19.0141C7.07046 18.9251 7.02591 18.7472 7.02591 18.6138C7.02591 18.3024 7.29323 18.0801 7.56055 18.0801C7.87242 18.0801 8.09519 18.3469 8.09519 18.6138C8.09519 18.7917 8.00608 18.8806 7.96153 18.9696C7.82787 19.1475 7.73876 19.3254 7.78331 19.5478L8.49617 24.1735H6.71404ZM37.3221 27.02C37.3221 27.3758 37.0548 27.6427 36.6984 27.6427H15.892C15.5356 27.6427 15.2683 27.3758 15.2683 27.02V17.0126L25.0254 21.238C25.3373 21.3714 25.6492 21.3714 25.9611 21.238L37.3221 16.3454V27.02ZM25.5155 18.8807L12.4614 13.232L23.1096 11.8087C23.7334 12.1646 24.5799 12.3425 25.471 12.3425C27.4759 12.3425 28.9016 11.4974 28.9016 10.2965C28.9016 9.1401 27.4313 8.25056 25.471 8.25056C23.9562 8.25056 22.7532 8.73981 22.2631 9.49592L8.22885 11.364L4.70914 9.85174C10.4565 7.98369 21.4612 3.84729 25.1591 2.4685L46.5892 9.76279L25.5155 18.8807ZM23.7779 10.2965C24.0007 10.1186 24.5799 9.89622 25.5155 9.89622C26.4511 9.89622 27.0303 10.1186 27.2531 10.2965C27.0303 10.4744 26.4511 10.6968 25.5155 10.6968C24.5799 10.6968 24.0007 10.4744 23.7779 10.2965Z" fill="#727376"/>
</svg>
