<svg width="101" height="38" viewBox="0 0 101 38" fill="none" xmlns="http://www.w3.org/2000/svg">
<path fill-rule="evenodd" clip-rule="evenodd" d="M98.9035 35.1804C99.0623 35.1804 99.1505 35.1118 99.1505 34.9647V34.8157C99.1505 34.6667 99.0623 34.598 98.9035 34.598H98.529V35.1804H98.9035ZM98.529 36.2667H98.0231V34.2039H98.9642C99.429 34.2039 99.6662 34.4784 99.6662 34.8549C99.6662 35.1804 99.5172 35.3882 99.2897 35.4765L99.7544 36.2667H99.2015L98.8152 35.5569H98.529V36.2667ZM100.339 35.349V35.0922C100.339 34.2627 99.6858 33.6098 98.825 33.6098C97.9643 33.6098 97.3113 34.2627 97.3113 35.0922V35.3471C97.3113 36.1784 97.9643 36.8294 98.825 36.8294C99.6858 36.8294 100.339 36.1784 100.339 35.349ZM96.8466 35.2196C96.8466 34.0647 97.727 33.1863 98.827 33.1863C99.9231 33.1863 100.803 34.0647 100.803 35.2196C100.803 36.3765 99.9231 37.2549 98.825 37.2549C97.727 37.2549 96.8466 36.3765 96.8466 35.2196ZM68.3466 2.58824L67.4446 0H52.6093V2.58627H68.3466V2.58824ZM70.0662 7.52549L69.1642 4.93922H52.6093V7.52745H70.0662V7.52549ZM81.1054 37.1529H94.0564V34.5647H81.1035V37.1529H81.1054ZM81.1054 32.2137H94.0564V29.6275H81.1035V32.2137H81.1054ZM81.1054 27.2765H88.876V24.6882H81.1035V27.2765H81.1054ZM81.1054 22.3392H88.876V19.751H81.1035V22.3392H81.1054ZM81.1054 17.402H88.876V14.8137H74.0584L73.3329 16.9059L72.6035 14.8137H57.7897V17.402H65.5603V15.0196L66.3956 17.398H80.2662L81.1015 15.0196V17.398L81.1054 17.402ZM88.876 9.87647H75.7799L74.8799 12.4647H88.876V9.87647ZM57.7917 22.3392H65.5623V19.751H57.7917V22.3392ZM57.7917 27.2765H65.5623V24.6882H57.7917V27.2765ZM52.6093 32.2137H65.5623V29.6275H52.6074V32.2137H52.6093ZM52.6093 37.151H65.5623V34.5647H52.6074V37.1529L52.6093 37.151ZM79.2192 0L78.3192 2.58627H94.0564V0H79.2192ZM76.5995 7.52353H94.0564V4.93725H77.5015L76.5995 7.52549V7.52353ZM57.7917 12.4608H71.7839L70.8819 9.87451H57.7897V12.4627L57.7917 12.4608ZM68.1348 22.3373H78.5329L79.4407 19.749H67.225L68.1348 22.3373ZM69.8701 27.2745H76.7956L77.7054 24.6863H68.9603L69.8701 27.2745ZM71.6054 32.2118H75.0603L75.9701 29.6255H70.6956L71.6054 32.2118ZM73.329 37.149L74.2329 34.5627H72.4329L73.329 37.151V37.149ZM21.525 37.149H40.5995C43.1917 37.149 45.5133 36.1686 47.2721 34.5627H21.529V37.151L21.525 37.149ZM41.778 24.6882V27.2745H50.4917C50.4917 26.3784 50.3682 25.5118 50.1446 24.6863H41.778V24.6882ZM26.7074 27.2745H34.478V24.6863H26.7054V27.2745H26.7074ZM41.778 12.4608H50.1446C50.3682 11.6373 50.4917 10.7706 50.4917 9.87451H41.778V12.4627V12.4608ZM26.7074 12.4608H34.478V9.87451H26.7054V12.4627L26.7074 12.4608ZM40.5995 0H21.529V2.58627H47.2741C45.5133 0.978431 43.1721 0 40.5995 0ZM49.1642 4.93725H21.529V7.52549H50.2094C49.9839 6.60392 49.629 5.73529 49.1662 4.93725H49.1642ZM26.7074 14.8118V17.4H47.0015C47.8603 16.6686 48.5917 15.7941 49.1623 14.8118H26.7054H26.7074ZM47.0015 19.751H26.7054V22.3373H49.1603C48.5917 21.3569 47.8584 20.4804 46.9995 19.749L47.0015 19.751ZM21.527 32.2118H49.1642C49.627 31.4137 49.9819 30.5451 50.2074 29.6255H21.527V32.2118ZM0.803467 2.58627H18.9368V0H0.803467V2.58627ZM0.803467 7.52353H18.9368V4.93725H0.803467V7.52549V7.52353ZM5.98386 12.4608H13.7544V9.87451H5.98386V12.4627V12.4608ZM5.98386 17.4H13.7544V14.8118H5.98386V17.4ZM5.98386 22.3373H13.7544V19.749H5.98386V22.3373ZM5.98386 27.2745H13.7544V24.6863H5.98386V27.2745ZM0.803467 32.2118H18.9368V29.6255H0.803467V32.2118ZM0.803467 37.149H18.9368V34.5627H0.803467V37.151V37.149Z" fill="#43619E"/>
</svg>
