<svg width="20" height="19" viewBox="0 0 20 19" fill="none" xmlns="http://www.w3.org/2000/svg">
<path d="M9.49811 1.71185C12.0357 1.71185 12.3336 1.72316 13.3366 1.76841C14.2641 1.80988 14.7656 1.96448 15.1012 2.09645C15.5461 2.26989 15.8629 2.47351 16.1947 2.80532C16.5265 3.13713 16.7339 3.45386 16.9036 3.89879C17.0318 4.23437 17.1901 4.73586 17.2316 5.66343C17.2768 6.6664 17.2882 6.96428 17.2882 9.50189C17.2882 12.0395 17.2768 12.3374 17.2316 13.3403C17.1901 14.2679 17.0355 14.7694 16.9036 15.105C16.7301 15.5499 16.5265 15.8666 16.1947 16.1985C15.8629 16.5303 15.5461 16.7376 15.1012 16.9073C14.7656 17.0355 14.2641 17.1939 13.3366 17.2354C12.3336 17.2806 12.0357 17.2919 9.49811 17.2919C6.96051 17.2919 6.66263 17.2806 5.65965 17.2354C4.73209 17.1939 4.2306 17.0393 3.89502 16.9073C3.45009 16.7339 3.13336 16.5303 2.80155 16.1985C2.46974 15.8666 2.26235 15.5499 2.09268 15.105C1.96448 14.7694 1.80611 14.2679 1.76464 13.3403C1.71939 12.3374 1.70808 12.0395 1.70808 9.50189C1.70808 6.96428 1.71939 6.6664 1.76464 5.66343C1.80611 4.73586 1.96071 4.23437 2.09268 3.89879C2.26612 3.45386 2.46974 3.13713 2.80155 2.80532C3.13336 2.47351 3.45009 2.26612 3.89502 2.09645C4.2306 1.96825 4.73209 1.80988 5.65965 1.76841C6.66263 1.71939 6.96051 1.71185 9.49811 1.71185ZM9.49811 0C6.91903 0 6.59476 0.0113118 5.58047 0.0565588C4.56995 0.101806 3.87994 0.263941 3.27664 0.497718C2.65072 0.739035 2.12284 1.06708 1.59496 1.59496C1.06708 2.12284 0.742806 2.6545 0.497718 3.27664C0.263941 3.87994 0.101806 4.56995 0.0565588 5.58424C0.0113118 6.59476 0 6.91903 0 9.49811C0 12.0772 0.0113118 12.4015 0.0565588 13.4158C0.101806 14.4263 0.263941 15.1163 0.497718 15.7234C0.739035 16.3493 1.06708 16.8772 1.59496 17.405C2.12284 17.9329 2.6545 18.2572 3.27664 18.5023C3.87994 18.7361 4.56995 18.8982 5.58424 18.9434C6.59853 18.9887 6.91903 19 9.50189 19C12.0847 19 12.4052 18.9887 13.4195 18.9434C14.43 18.8982 15.1201 18.7361 15.7271 18.5023C16.353 18.261 16.8809 17.9329 17.4088 17.405C17.9367 16.8772 18.261 16.3455 18.5061 15.7234C18.7398 15.1201 18.902 14.43 18.9472 13.4158C18.9925 12.4015 19.0038 12.081 19.0038 9.49811C19.0038 6.91526 18.9925 6.59476 18.9472 5.58047C18.902 4.56995 18.7398 3.87994 18.5061 3.27287C18.2647 2.64695 17.9367 2.11907 17.4088 1.59119C16.8809 1.06331 16.3493 0.739036 15.7271 0.493947C15.1238 0.260171 14.4338 0.0980353 13.4195 0.0527883C12.4015 0.0113118 12.0772 0 9.49811 0Z" fill="#A8A8A0"/>
<path d="M9.49804 4.61902C6.80584 4.61902 4.6189 6.80219 4.6189 9.49816C4.6189 12.1941 6.80584 14.3773 9.49804 14.3773C12.1902 14.3773 14.3772 12.1904 14.3772 9.49816C14.3772 6.80596 12.1902 4.61902 9.49804 4.61902ZM9.49804 12.6655C7.74849 12.6655 6.33074 11.2477 6.33074 9.49816C6.33074 7.74861 7.74849 6.33087 9.49804 6.33087C11.2476 6.33087 12.6653 7.74861 12.6653 9.49816C12.6653 11.2477 11.2476 12.6655 9.49804 12.6655Z" fill="#A8A8A0"/>
<path d="M14.5696 5.5654C15.1985 5.5654 15.7083 5.05558 15.7083 4.42668C15.7083 3.79779 15.1985 3.28796 14.5696 3.28796C13.9407 3.28796 13.4309 3.79779 13.4309 4.42668C13.4309 5.05558 13.9407 5.5654 14.5696 5.5654Z" fill="#A8A8A0"/>
</svg>
