<svg width="151" height="37" viewBox="0 0 151 37" fill="none" xmlns="http://www.w3.org/2000/svg">
<path d="M148.696 34.2664C148.697 34.2664 148.699 34.2664 148.702 34.2664C149.071 34.2664 149.375 33.9627 149.375 33.5937C149.375 33.5807 149.375 33.5678 149.373 33.5548C149.373 33.0503 149.07 32.8091 148.444 32.8091H147.435V35.4514H147.815V34.2996H148.281L148.291 34.3136L149.016 35.4514H149.422L148.644 34.2737L148.696 34.2664ZM148.255 34.0017H147.815V33.1086H148.374C148.662 33.1086 148.99 33.1556 148.99 33.5331C148.99 33.9671 148.658 34.0017 148.254 34.0017H148.255ZM0.803467 5.37608H6.40678V25.787H16.7806V30.9581H0.803467V5.37608ZM19.2579 13.6127H24.6411V30.9485H19.2579V13.6127ZM21.9494 4.9942C23.6623 4.99453 25.0717 6.40405 25.0717 8.11696C25.0717 9.83004 23.662 11.2397 21.9489 11.2397C20.2358 11.2397 18.8262 9.83004 18.8262 8.11696C18.8262 6.40389 20.2358 4.9942 21.9489 4.9942C21.9491 4.9942 21.9492 4.9942 21.9494 4.9942ZM47.1591 5.37217H52.5423V20.6606L58.6432 13.6049H65.2431L58.1778 21.6308L65.0944 30.9558H58.3286L52.6141 22.3866H52.5434V30.9547H47.1603L47.1591 5.37217ZM27.6258 13.6145H32.7953V15.9836H32.8687C33.9193 14.1836 35.8831 13.1047 37.9659 13.1832C43.4247 13.1832 44.4295 16.7748 44.4295 21.4406V30.9474H39.0463V22.519C39.0463 20.5071 39.0094 17.9209 36.2427 17.9209C33.4446 17.9209 33.0129 20.1117 33.0129 22.3726V30.9453H27.6297L27.6258 13.6145Z" fill="#0A66C2"/>
<path d="M76.5796 20.2643C76.5801 20.2389 76.5804 20.2134 76.5804 20.1881C76.5804 18.4175 75.1234 16.9605 73.3528 16.9605C73.3267 16.9605 73.3007 16.9608 73.2745 16.9615C71.3302 16.8404 69.6236 18.3221 69.4705 20.2643H76.5796ZM81.1395 27.9463C79.3291 30.1417 76.6235 31.4093 73.7781 31.3955C68.395 31.3955 64.0851 27.8022 64.0851 22.238C64.0851 16.6738 68.3945 13.0823 73.7781 13.0823C78.8096 13.0823 81.9648 16.6709 81.9648 22.238V23.9259H69.4705C69.7907 25.896 71.5319 27.3446 73.5274 27.301C75.0826 27.2913 76.531 26.4926 77.369 25.1825L81.1395 27.9463ZM93.1853 17.8031C90.4938 17.8031 88.8789 19.6003 88.8789 22.219C88.8789 24.8377 90.4931 26.6364 93.1853 26.6364C95.8774 26.6364 97.4958 24.8421 97.4958 22.219C97.4958 19.5958 95.8802 17.8031 93.1853 17.8031ZM102.452 30.9452H97.4958V28.6462H97.4223C96.1629 30.3399 94.1811 31.3508 92.0705 31.3759C86.8983 31.3759 83.4912 27.6429 83.4912 22.3641C83.4912 17.5161 86.5064 13.0642 91.4626 13.0642C93.6905 13.0642 95.7715 13.6738 96.9922 15.3633H97.0629V5.37036H102.451L102.452 30.9452ZM138.792 30.9553H133.409V22.5251C133.409 20.5149 133.373 17.927 130.61 17.927C127.806 17.927 127.377 20.1172 127.377 22.3787V30.9547H121.994V13.6189H127.162V15.9879H127.234C128.286 14.1889 130.25 13.1104 132.333 13.1877C137.789 13.1877 138.795 16.7764 138.795 21.4452L138.792 30.9553ZM115.92 11.2491C115.92 11.2491 115.919 11.2491 115.919 11.2491C114.206 11.2491 112.795 9.83911 112.795 8.12538C112.795 6.41166 114.206 5.00149 115.919 5.00149C117.633 5.00149 119.043 6.41134 119.043 8.12473C119.043 8.1249 119.043 8.12506 119.043 8.12538C119.043 9.83878 117.633 11.249 115.92 11.2491ZM118.611 30.9553H113.223V13.6189H118.611V30.9553ZM141.476 0.00250636H110.518C109.064 -0.0139061 107.855 1.16779 107.837 2.62103V33.7079C107.854 35.1619 109.064 36.3449 110.518 36.3293H141.476C142.934 36.3477 144.147 35.1649 144.167 33.7079V2.61891C144.147 1.16259 142.932 -0.0189448 141.476 0.000230138V0.00250636ZM148.303 31.6321C146.952 31.6451 145.849 32.7592 145.849 34.1093C145.849 35.4684 146.967 36.5867 148.325 36.5867C149.685 36.5867 150.803 35.4684 150.803 34.1093C150.803 32.7592 149.7 31.6451 148.35 31.6321H148.303ZM148.303 36.303C148.29 36.3032 148.278 36.3033 148.265 36.3033C147.074 36.3033 146.094 35.3228 146.094 34.131C146.094 32.9394 147.074 31.9587 148.265 31.9587C149.443 31.9587 150.418 32.917 150.438 34.0948V34.1314C150.462 35.297 149.525 36.2767 148.359 36.3019H148.303" fill="#0A66C2"/>
</svg>
