<svg width="228" height="52" viewBox="0 0 228 52" fill="none" xmlns="http://www.w3.org/2000/svg">
<path d="M0 16.6613V4.16534C0 1.4058 1.4058 0 4.16534 0H20.8267V4.16534H4.16534V16.6613H20.8267V20.8267H4.16534C1.4058 20.8267 0 19.4209 0 16.6613Z" fill="white"/>
<path d="M41.6534 16.6613V12.496H29.1574C26.3979 12.496 24.9921 11.0902 24.9921 8.33067V0H29.1574V8.33067H41.6534V0H45.8187V16.6613C45.8187 19.4209 44.4129 20.8267 41.6534 20.8267H24.9921V16.6613H41.6534Z" fill="white"/>
<path d="M68.728 10.4133C70.1338 10.4133 70.8107 11.0902 70.8107 12.496V16.6613C70.8107 19.4209 69.4049 20.8267 66.6453 20.8267H49.984V0H66.6453C69.4049 0 70.8107 1.4058 70.8107 4.16534V8.33067C70.8107 9.73647 70.1338 10.4133 68.728 10.4133ZM66.6453 4.16534H54.1493V8.33067H66.6453V4.16534ZM54.1493 16.6613H66.6453V12.496H54.1493V16.6613Z" fill="white"/>
<path d="M114.026 12.496L111.371 9.8406V20.8267H107.205V0H123.867C126.626 0 128.032 1.4058 128.032 4.16534V8.33067C128.032 11.0902 126.678 12.496 123.919 12.496H119.701L128.032 20.8267H122.357L114.026 12.496ZM111.371 8.33067H123.867V4.16534H111.371V8.33067Z" fill="white"/>
<path d="M136.363 20.8267H132.197V0H136.363V20.8267ZM136.935 10.4133L147.349 0H153.024L142.611 10.4133L153.024 20.8267H147.349L136.935 10.4133Z" fill="white"/>
<path d="M161.355 0H173.851C176.61 0 178.016 1.4058 178.016 4.16534V16.6613C178.016 19.4209 176.61 20.8267 173.851 20.8267H161.355C158.595 20.8267 157.189 19.4209 157.189 16.6613V4.16534C157.189 1.4058 158.595 0 161.355 0ZM161.355 16.6613H173.851V4.16534H161.355V16.6613Z" fill="white"/>
<path d="M182.181 16.6613V4.16534C182.181 1.4058 183.587 0 186.347 0H203.008V4.16534H186.347V16.6613H203.008V20.8267H186.347C183.587 20.8267 182.181 19.4209 182.181 16.6613Z" fill="white"/>
<path d="M211.339 0V8.33067H223.835V0H228V20.8267H223.835V12.496H211.339V20.8267H207.173V0H211.339Z" fill="white"/>
<path d="M86.2225 11.2465H92.3663C93.4077 11.2465 94.449 11.6109 95.1779 12.3399C95.8027 12.9647 96.6879 13.2771 97.6251 13.1209C98.6664 12.9126 99.5515 12.0795 99.7598 11.0382C100.124 9.26793 98.7705 7.70593 97.1044 7.70593C96.3755 7.70593 95.6986 8.01833 95.23 8.48693C94.5011 9.21587 93.5639 9.6324 92.5225 9.6324H86.2225H80.1827C79.1414 9.6324 78.1001 9.26793 77.3711 8.539C76.7463 7.9142 75.8612 7.6018 74.924 7.758C73.8827 7.96627 72.9975 8.79933 72.7893 9.84067C72.4248 11.6109 73.7785 13.1729 75.4447 13.1729C76.1736 13.1729 76.8505 12.8605 77.3191 12.3919C78.048 11.663 78.9852 11.2465 80.0265 11.2465H86.2225Z" fill="white"/>
<path d="M80.8595 5.467C81.5885 5.467 82.2653 5.1546 82.7339 4.686C83.4629 3.95707 84.4001 3.54053 85.4414 3.54053H89.4506H97.7812C98.8226 3.54053 99.8639 3.905 100.593 4.63393C101.218 5.25873 102.103 5.57114 103.04 5.41494C104.081 5.20667 104.966 4.3736 105.175 3.33227C105.591 1.562 104.237 0 102.571 0C101.842 0 101.166 0.3124 100.697 0.781C99.968 1.50993 99.0308 1.92647 97.9895 1.92647H90.4398H85.6497C84.6083 1.92647 83.567 1.562 82.8381 0.833067C82.2133 0.208267 81.3281 -0.104133 80.3909 0.0520667C79.3496 0.260333 78.4645 1.0934 78.2562 2.13473C77.7876 3.905 79.1413 5.467 80.8595 5.467Z" fill="white"/>
<path d="M102.571 15.3596C101.842 15.3596 101.166 15.672 100.697 16.1406C99.968 16.8696 99.0308 17.2861 97.9895 17.2861H89.5026H85.6497C84.6083 17.2861 83.567 16.9216 82.8381 16.1927C82.2133 15.5679 81.3281 15.2555 80.3909 15.4117C79.3496 15.62 78.4645 16.453 78.2562 17.4944C77.8917 19.2646 79.2455 20.8266 80.9116 20.8266C81.6405 20.8266 82.3174 20.5142 82.786 20.0456C83.5149 19.3167 84.4521 18.9002 85.4935 18.9002H90.4398H97.8333C98.8746 18.9002 99.9159 19.2646 100.645 19.9936C101.27 20.6184 102.155 20.9308 103.092 20.7746C104.133 20.5663 105.018 19.7332 105.227 18.6919C105.591 16.9216 104.237 15.3596 102.571 15.3596Z" fill="white"/>
<path d="M133.343 45.4542C132.562 44.8294 132.197 43.8401 132.197 42.5384C132.197 41.2888 132.562 40.4037 133.239 39.7789C133.915 39.1541 135.009 38.8417 136.415 38.8417H139.955L140.111 40.8202H136.415C135.79 40.8202 135.321 40.9764 134.957 41.2368C134.644 41.4971 134.488 41.9657 134.488 42.5384C134.488 43.1632 134.696 43.6318 135.113 43.9442C135.53 44.2566 136.154 44.4128 137.039 44.4128C137.977 44.4128 138.654 44.3087 139.122 44.1004C139.591 43.8922 139.799 43.5798 139.799 43.1632L140.059 44.9335C139.851 45.2459 139.591 45.5583 139.278 45.7666C138.966 45.9748 138.601 46.131 138.185 46.2352C137.768 46.3393 137.3 46.3914 136.779 46.3914C135.269 46.3914 134.124 46.079 133.343 45.4542ZM139.851 38.321C139.851 37.488 139.643 36.8632 139.174 36.3946C138.758 35.926 138.133 35.7177 137.3 35.7177C136.779 35.7177 136.311 35.7698 135.842 35.926C135.373 36.0822 134.957 36.2904 134.592 36.5507L132.822 35.3012C133.291 34.7284 133.915 34.3119 134.696 33.9995C135.477 33.6871 136.311 33.5309 137.248 33.5309C138.289 33.5309 139.174 33.7392 139.903 34.0516C140.632 34.416 141.205 34.9367 141.569 35.6136C141.934 36.2904 142.142 37.1235 142.142 38.1127V46.131H139.799V38.321H139.851Z" fill="white"/>
<path d="M148.026 45.7665C147.245 45.35 146.62 44.7252 146.203 43.9442C145.787 43.1111 145.578 42.1739 145.578 41.0285V38.9979C145.578 37.8524 145.787 36.9152 146.203 36.0821C146.62 35.3011 147.245 34.6763 148.026 34.2598C148.807 33.8433 149.796 33.635 150.941 33.635C151.566 33.635 152.191 33.6871 152.764 33.8953C153.336 34.0515 153.857 34.2598 154.326 34.5722C154.794 34.8846 155.159 35.2491 155.471 35.6656L153.701 37.2276C153.336 36.8111 152.92 36.4987 152.451 36.2904C151.983 36.0821 151.462 35.978 150.993 35.978C150.056 35.978 149.327 36.2383 148.807 36.759C148.286 37.2797 148.026 38.0086 148.026 38.9979V41.0285C148.026 42.0177 148.286 42.7467 148.807 43.3194C149.327 43.8401 150.056 44.1004 150.993 44.1004C151.514 44.1004 152.035 43.9963 152.503 43.7359C152.972 43.5277 153.388 43.1632 153.753 42.7467L155.523 44.4649C155.211 44.8814 154.846 45.2459 154.378 45.5062C153.909 45.8186 153.388 46.0269 152.816 46.1831C152.243 46.3393 151.618 46.3913 150.993 46.3913C149.796 46.3913 148.807 46.1831 148.026 45.7665Z" fill="white"/>
<path d="M158.647 45.4542C157.866 44.8294 157.502 43.8401 157.502 42.5384C157.502 41.2888 157.866 40.4037 158.543 39.7789C159.22 39.1541 160.313 38.8417 161.719 38.8417H165.26L165.416 40.8202H161.719C161.094 40.8202 160.626 40.9764 160.261 41.2368C159.949 41.4971 159.793 41.9657 159.793 42.5384C159.793 43.1632 160.001 43.6318 160.417 43.9442C160.834 44.2566 161.459 44.4128 162.344 44.4128C163.281 44.4128 163.958 44.3087 164.427 44.1004C164.895 43.8922 165.103 43.5798 165.103 43.1632L165.364 44.9335C165.156 45.2459 164.895 45.5583 164.583 45.7666C164.27 45.9748 163.906 46.131 163.489 46.2352C163.073 46.3393 162.604 46.3914 162.084 46.3914C160.574 46.3914 159.428 46.079 158.647 45.4542ZM165.156 38.321C165.156 37.488 164.947 36.8632 164.479 36.3946C164.062 35.926 163.437 35.7177 162.604 35.7177C162.084 35.7177 161.615 35.7698 161.146 35.926C160.678 36.0822 160.261 36.2904 159.897 36.5507L158.127 35.3012C158.595 34.7284 159.22 34.3119 160.001 33.9995C160.782 33.6871 161.615 33.5309 162.552 33.5309C163.594 33.5309 164.479 33.7392 165.208 34.0516C165.937 34.416 166.509 34.9367 166.874 35.6136C167.238 36.2904 167.446 37.1235 167.446 38.1127V46.131H165.103V38.321H165.156Z" fill="white"/>
<path d="M172.809 45.8187C172.185 45.4022 171.664 44.8294 171.351 44.1005C171.039 43.3195 170.831 42.4344 170.831 41.341V38.5814C170.831 37.488 170.987 36.6029 171.299 35.8219C171.612 35.0409 172.08 34.4682 172.757 34.1037C173.382 33.6872 174.163 33.531 174.996 33.531C175.725 33.531 176.402 33.7392 177.027 34.1037C177.652 34.4682 178.12 35.0409 178.485 35.7178L178.224 38.269C178.224 37.7484 178.12 37.2798 177.912 36.9153C177.704 36.5508 177.443 36.2384 177.079 36.0822C176.714 35.874 176.298 35.7698 175.777 35.7698C174.944 35.7698 174.319 36.0302 173.903 36.5508C173.434 37.0715 173.226 37.7484 173.226 38.6856V41.393C173.226 42.2782 173.434 43.0071 173.903 43.4757C174.371 43.9443 174.996 44.2046 175.777 44.2046C176.298 44.2046 176.714 44.1005 177.079 43.8923C177.443 43.684 177.704 43.3716 177.912 43.0071C178.12 42.6426 178.224 42.174 178.224 41.6534L178.38 44.2567C178.12 44.8815 177.704 45.4022 177.183 45.8187C176.61 46.2353 175.933 46.4435 175.1 46.4435C174.215 46.4435 173.434 46.2353 172.809 45.8187ZM178.276 28.7408H180.723V46.1832H178.276V28.7408Z" fill="white"/>
<path d="M186.607 45.7145C185.774 45.298 185.149 44.6732 184.733 43.788C184.316 42.955 184.108 41.9657 184.108 40.7682V39.3624C184.108 38.1128 184.316 37.0714 184.733 36.1863C185.149 35.3012 185.722 34.6243 186.503 34.2077C187.284 33.7391 188.221 33.5309 189.314 33.5309C190.356 33.5309 191.241 33.7912 191.97 34.3119C192.699 34.8326 193.272 35.5615 193.636 36.5507C194 37.54 194.209 38.7376 194.209 40.0913V40.9244H185.878V38.9458H191.97C191.918 37.9045 191.657 37.1235 191.189 36.5507C190.72 35.978 190.148 35.7177 189.367 35.7177C188.429 35.7177 187.7 36.0301 187.232 36.6549C186.711 37.2797 186.451 38.1128 186.451 39.2582V40.8202C186.451 41.8616 186.711 42.6426 187.284 43.2153C187.805 43.788 188.586 44.0484 189.575 44.0484C190.095 44.0484 190.564 43.9442 191.033 43.736C191.501 43.5277 191.97 43.2674 192.334 42.9029L193.948 44.517C193.324 45.0897 192.647 45.5583 191.866 45.8707C191.085 46.1831 190.304 46.3393 189.575 46.3393C188.377 46.3914 187.388 46.1831 186.607 45.7145Z" fill="white"/>
<path d="M197.593 33.7393H200.04V46.1833H197.593V33.7393ZM205.039 38.6857C205.039 37.8005 204.83 37.1237 204.414 36.6551C203.997 36.1865 203.372 35.9261 202.591 35.9261C201.81 35.9261 201.186 36.1344 200.717 36.5509C200.3 36.9675 200.04 37.5923 200.04 38.3212L199.78 35.9261C200.144 35.1972 200.665 34.5724 201.29 34.2079C201.915 33.7914 202.591 33.5831 203.372 33.5831C204.258 33.5831 204.986 33.7914 205.611 34.1559C206.236 34.5724 206.705 35.1451 207.017 35.8741C207.329 36.6551 207.486 37.5402 207.486 38.6336V46.1833H205.039V38.6857ZM212.484 38.6857C212.484 37.8005 212.276 37.1237 211.807 36.6551C211.339 36.1865 210.714 35.9261 209.881 35.9261C209.1 35.9261 208.527 36.1344 208.11 36.603C207.694 37.0716 207.486 37.7485 207.486 38.5815L207.017 36.1865C207.434 35.3534 207.902 34.7286 208.579 34.26C209.204 33.7914 209.933 33.5831 210.714 33.5831C211.599 33.5831 212.38 33.7914 213.005 34.1559C213.63 34.5724 214.098 35.1451 214.463 35.8741C214.775 36.6551 214.983 37.5402 214.983 38.6336V46.1833H212.536V38.6857H212.484Z" fill="white"/>
<path d="M216.962 33.7393H219.461L223.314 44.5691L221.96 47.2245L216.962 33.7393ZM228 33.7393L222.689 49.0989C222.481 49.6717 222.221 50.1403 221.908 50.4527C221.596 50.7651 221.231 51.0254 220.763 51.1816C220.294 51.3378 219.721 51.3899 219.097 51.3899H218.628V49.0469H219.097C219.565 49.0469 219.93 48.9427 220.19 48.7865C220.45 48.5783 220.711 48.2659 220.867 47.8493L225.449 33.7913H228V33.7393Z" fill="white"/>
</svg>
