<svg width="250" height="57" viewBox="0 0 250 57" fill="none" xmlns="http://www.w3.org/2000/svg">
<path d="M0 18.269V4.56725C0 1.54145 1.54145 0 4.56725 0H22.8362V4.56725H4.56725V18.269H22.8362V22.8362H4.56725C1.54145 22.8362 0 21.2948 0 18.269Z" fill="black"/>
<path d="M45.6727 18.269V13.7017H31.9709C28.9451 13.7017 27.4037 12.1603 27.4037 9.13449V0H31.9709V9.13449H45.6727V0H50.2399V18.269C50.2399 21.2948 48.6985 22.8362 45.6727 22.8362H27.4037V18.269H45.6727Z" fill="black"/>
<path d="M75.3599 11.4181C76.9014 11.4181 77.6435 12.1603 77.6435 13.7017V18.269C77.6435 21.2948 76.1021 22.8362 73.0763 22.8362H54.8073V0H73.0763C76.1021 0 77.6435 1.54145 77.6435 4.56725V9.13449C77.6435 10.6759 76.9014 11.4181 75.3599 11.4181ZM73.0763 4.56725H59.3746V9.13449H73.0763V4.56725ZM59.3746 18.269H73.0763V13.7017H59.3746V18.269Z" fill="black"/>
<path d="M125.028 13.7017L122.116 10.7901V22.8362H117.549V0H135.818C138.844 0 140.385 1.54145 140.385 4.56725V9.13449C140.385 12.1603 138.901 13.7017 135.875 13.7017H131.251L140.385 22.8362H134.162L125.028 13.7017ZM122.116 9.13449H135.818V4.56725H122.116V9.13449Z" fill="black"/>
<path d="M149.52 22.8362H144.953V0H149.52V22.8362ZM150.148 11.4181L161.566 0H167.789L156.371 11.4181L167.789 22.8362H161.566L150.148 11.4181Z" fill="black"/>
<path d="M176.924 0H190.625C193.651 0 195.193 1.54145 195.193 4.56725V18.269C195.193 21.2948 193.651 22.8362 190.625 22.8362H176.924C173.898 22.8362 172.357 21.2948 172.357 18.269V4.56725C172.357 1.54145 173.898 0 176.924 0ZM176.924 18.269H190.625V4.56725H176.924V18.269Z" fill="black"/>
<path d="M199.76 18.269V4.56725C199.76 1.54145 201.302 0 204.327 0H222.596V4.56725H204.327V18.269H222.596V22.8362H204.327C201.302 22.8362 199.76 21.2948 199.76 18.269Z" fill="black"/>
<path d="M231.731 0V9.13449H245.433V0H250V22.8362H245.433V13.7017H231.731V22.8362H227.164V0H231.731Z" fill="black"/>
<path d="M94.5416 12.3311H101.278C102.42 12.3311 103.562 12.7308 104.361 13.53C105.046 14.2151 106.017 14.5577 107.044 14.3864C108.186 14.158 109.157 13.2446 109.385 12.1028C109.785 10.1617 108.3 8.44897 106.473 8.44897C105.674 8.44897 104.932 8.79152 104.418 9.30533C103.619 10.1046 102.591 10.5613 101.45 10.5613H94.5416H87.919C86.7772 10.5613 85.6354 10.1617 84.8362 9.36242C84.1511 8.67734 83.1805 8.33479 82.1529 8.50606C81.0111 8.73443 80.0406 9.64788 79.8122 10.7897C79.4126 12.7308 80.8969 14.4435 82.7238 14.4435C83.5231 14.4435 84.2653 14.1009 84.7791 13.5871C85.5783 12.7879 86.606 12.3311 87.7478 12.3311H94.5416Z" fill="#0068C8"/>
<path d="M88.6615 5.99451C89.4607 5.99451 90.2029 5.65197 90.7167 5.13815C91.516 4.33888 92.5436 3.88216 93.6854 3.88216H98.0814H107.216C108.358 3.88216 109.5 4.28179 110.299 5.08106C110.984 5.76615 111.954 6.10869 112.982 5.93742C114.124 5.70906 115.094 4.79561 115.323 3.6538C115.779 1.71272 114.295 0 112.468 0C111.669 0 110.927 0.342543 110.413 0.856359C109.614 1.65563 108.586 2.11235 107.444 2.11235H99.1661H93.9138C92.772 2.11235 91.6302 1.71272 90.8309 0.913449C90.1458 0.228362 89.1753 -0.114181 88.1477 0.0570906C87.0058 0.285453 86.0353 1.1989 85.8069 2.34071C85.2931 4.28179 86.7775 5.99451 88.6615 5.99451Z" fill="#0068C8"/>
<path d="M112.468 16.8413C111.669 16.8413 110.927 17.1839 110.413 17.6977C109.614 18.4969 108.586 18.9537 107.444 18.9537H98.1383H93.9136C92.7718 18.9537 91.63 18.554 90.8307 17.7548C90.1456 17.0697 89.1751 16.7271 88.1475 16.8984C87.0057 17.1268 86.0351 18.0402 85.8068 19.182C85.4071 21.1231 86.8915 22.8358 88.7184 22.8358C89.5176 22.8358 90.2598 22.4933 90.7736 21.9795C91.5729 21.1802 92.6005 20.7235 93.7423 20.7235H99.1659H107.273C108.415 20.7235 109.556 21.1231 110.356 21.9224C111.041 22.6075 112.011 22.95 113.039 22.7787C114.181 22.5504 115.151 21.6369 115.38 20.4951C115.779 18.554 114.295 16.8413 112.468 16.8413Z" fill="#0068C8"/>
<path d="M146.209 49.8397C145.352 49.1546 144.953 48.0699 144.953 46.6427C144.953 45.2725 145.352 44.3019 146.095 43.6169C146.837 42.9318 148.036 42.5892 149.577 42.5892H153.459L153.631 44.7587H149.577C148.892 44.7587 148.378 44.9299 147.979 45.2154C147.636 45.5008 147.465 46.0147 147.465 46.6427C147.465 47.3277 147.693 47.8416 148.15 48.1841C148.607 48.5266 149.292 48.6979 150.262 48.6979C151.29 48.6979 152.032 48.5837 152.546 48.3554C153.06 48.127 153.288 47.7845 153.288 47.3277L153.573 49.2688C153.345 49.6114 153.06 49.9539 152.717 50.1823C152.375 50.4106 151.975 50.5819 151.518 50.6961C151.062 50.8103 150.548 50.8674 149.977 50.8674C148.321 50.8674 147.065 50.5248 146.209 49.8397ZM153.345 42.0183C153.345 41.1049 153.117 40.4198 152.603 39.906C152.146 39.3922 151.461 39.1638 150.548 39.1638C149.977 39.1638 149.463 39.2209 148.949 39.3922C148.435 39.5634 147.979 39.7918 147.579 40.0772L145.638 38.7071C146.152 38.0791 146.837 37.6224 147.693 37.2798C148.55 36.9373 149.463 36.766 150.491 36.766C151.632 36.766 152.603 36.9944 153.402 37.3369C154.202 37.7365 154.829 38.3074 155.229 39.0496C155.629 39.7918 155.857 40.7052 155.857 41.79V50.5819H153.288V42.0183H153.345Z" fill="black"/>
<path d="M162.308 50.1825C161.452 49.7257 160.767 49.0407 160.31 48.1843C159.854 47.2709 159.625 46.2432 159.625 44.9872V42.7607C159.625 41.5047 159.854 40.4771 160.31 39.5636C160.767 38.7073 161.452 38.0222 162.308 37.5655C163.165 37.1087 164.25 36.8804 165.506 36.8804C166.191 36.8804 166.876 36.9375 167.504 37.1658C168.132 37.3371 168.703 37.5655 169.216 37.908C169.73 38.2505 170.13 38.6502 170.472 39.1069L168.531 40.8196C168.132 40.3629 167.675 40.0204 167.161 39.792C166.647 39.5636 166.076 39.4494 165.563 39.4494C164.535 39.4494 163.736 39.7349 163.165 40.3058C162.594 40.8767 162.308 41.676 162.308 42.7607V44.9872C162.308 46.072 162.594 46.8712 163.165 47.4992C163.736 48.0701 164.535 48.3556 165.563 48.3556C166.134 48.3556 166.704 48.2414 167.218 47.9559C167.732 47.7276 168.189 47.3279 168.588 46.8712L170.53 48.7552C170.187 49.2119 169.787 49.6116 169.274 49.897C168.76 50.2396 168.189 50.4679 167.561 50.6392C166.933 50.8105 166.248 50.8676 165.563 50.8676C164.25 50.8676 163.165 50.6392 162.308 50.1825Z" fill="black"/>
<path d="M173.955 49.8397C173.098 49.1546 172.699 48.0699 172.699 46.6427C172.699 45.2725 173.098 44.3019 173.841 43.6169C174.583 42.9318 175.782 42.5892 177.323 42.5892H181.205L181.377 44.7587H177.323C176.638 44.7587 176.124 44.9299 175.725 45.2154C175.382 45.5008 175.211 46.0147 175.211 46.6427C175.211 47.3277 175.439 47.8416 175.896 48.1841C176.353 48.5266 177.038 48.6979 178.008 48.6979C179.036 48.6979 179.778 48.5837 180.292 48.3554C180.806 48.127 181.034 47.7845 181.034 47.3277L181.319 49.2688C181.091 49.6114 180.806 49.9539 180.463 50.1823C180.121 50.4106 179.721 50.5819 179.264 50.6961C178.807 50.8103 178.294 50.8674 177.723 50.8674C176.067 50.8674 174.811 50.5248 173.955 49.8397ZM181.091 42.0183C181.091 41.1049 180.863 40.4198 180.349 39.906C179.892 39.3922 179.207 39.1638 178.294 39.1638C177.723 39.1638 177.209 39.2209 176.695 39.3922C176.181 39.5634 175.725 39.7918 175.325 40.0772L173.384 38.7071C173.898 38.0791 174.583 37.6224 175.439 37.2798C176.295 36.9373 177.209 36.766 178.237 36.766C179.378 36.766 180.349 36.9944 181.148 37.3369C181.947 37.7365 182.575 38.3074 182.975 39.0496C183.375 39.7918 183.603 40.7052 183.603 41.79V50.5819H181.034V42.0183H181.091Z" fill="black"/>
<path d="M189.484 50.2394C188.799 49.7827 188.228 49.1547 187.885 48.3554C187.543 47.499 187.314 46.5285 187.314 45.3296V42.3038C187.314 41.1049 187.486 40.1343 187.828 39.278C188.171 38.4216 188.685 37.7936 189.427 37.394C190.112 36.9373 190.968 36.766 191.882 36.766C192.681 36.766 193.423 36.9944 194.108 37.394C194.793 37.7936 195.307 38.4216 195.707 39.1638L195.421 41.9612C195.421 41.3903 195.307 40.8765 195.079 40.4769C194.85 40.0773 194.565 39.7347 194.165 39.5634C193.766 39.3351 193.309 39.2209 192.738 39.2209C191.825 39.2209 191.139 39.5063 190.683 40.0773C190.169 40.6482 189.941 41.3903 189.941 42.418V45.3867C189.941 46.3572 190.169 47.1565 190.683 47.6703C191.197 48.1841 191.882 48.4696 192.738 48.4696C193.309 48.4696 193.766 48.3554 194.165 48.127C194.565 47.8987 194.85 47.5561 195.079 47.1565C195.307 46.7569 195.421 46.243 195.421 45.6721L195.593 48.5267C195.307 49.2117 194.85 49.7827 194.279 50.2394C193.651 50.6961 192.909 50.9245 191.996 50.9245C191.025 50.9245 190.169 50.6961 189.484 50.2394ZM195.478 31.5137H198.162V50.639H195.478V31.5137Z" fill="black"/>
<path d="M204.613 50.1252C203.699 49.6685 203.014 48.9834 202.557 48.0128C202.101 47.0994 201.872 46.0147 201.872 44.7016V43.1601C201.872 41.79 202.101 40.6481 202.557 39.6776C203.014 38.7071 203.642 37.9649 204.499 37.5082C205.355 36.9944 206.383 36.766 207.581 36.766C208.723 36.766 209.694 37.0514 210.493 37.6223C211.292 38.1933 211.92 38.9925 212.32 40.0772C212.72 41.162 212.948 42.475 212.948 43.9594V44.8728H203.813V42.7034H210.493C210.436 41.5616 210.151 40.7052 209.637 40.0772C209.123 39.4492 208.495 39.1638 207.639 39.1638C206.611 39.1638 205.812 39.5063 205.298 40.1914C204.727 40.8765 204.441 41.79 204.441 43.046V44.7587C204.441 45.9005 204.727 46.7568 205.355 47.3848C205.926 48.0128 206.782 48.2983 207.867 48.2983C208.438 48.2983 208.952 48.1841 209.465 47.9557C209.979 47.7274 210.493 47.4419 210.893 47.0423L212.663 48.8121C211.977 49.4401 211.235 49.9539 210.379 50.2965C209.523 50.639 208.666 50.8103 207.867 50.8103C206.554 50.8674 205.469 50.639 204.613 50.1252Z" fill="black"/>
<path d="M216.659 36.995H219.343V50.6396H216.659V36.995ZM224.823 42.4186C224.823 41.4481 224.595 40.7059 224.138 40.1921C223.681 39.6783 222.996 39.3928 222.14 39.3928C221.284 39.3928 220.598 39.6212 220.085 40.0779C219.628 40.5346 219.343 41.2197 219.343 42.019L219.057 39.3928C219.457 38.5935 220.028 37.9084 220.713 37.5088C221.398 37.0521 222.14 36.8237 222.996 36.8237C223.967 36.8237 224.766 37.0521 225.451 37.4517C226.136 37.9085 226.65 38.5364 226.993 39.3357C227.335 40.1921 227.506 41.1626 227.506 42.3615V50.6396H224.823V42.4186ZM232.987 42.4186C232.987 41.4481 232.759 40.7059 232.245 40.1921C231.731 39.6783 231.046 39.3928 230.133 39.3928C229.276 39.3928 228.648 39.6212 228.192 40.135C227.735 40.6488 227.506 41.391 227.506 42.3044L226.993 39.6783C227.449 38.7648 227.963 38.0797 228.705 37.5659C229.39 37.0521 230.19 36.8237 231.046 36.8237C232.017 36.8237 232.873 37.0521 233.558 37.4517C234.243 37.9085 234.757 38.5364 235.157 39.3357C235.499 40.1921 235.727 41.1626 235.727 42.3615V50.6396H233.044V42.4186H232.987Z" fill="black"/>
<path d="M237.896 36.9949H240.637L244.861 48.8697L243.377 51.7813L237.896 36.9949ZM249.999 36.9949L244.176 53.8366C243.948 54.4646 243.662 54.9784 243.32 55.3209C242.977 55.6635 242.578 55.9489 242.064 56.1202C241.55 56.2915 240.922 56.3486 240.237 56.3486H239.723V53.7795H240.237C240.751 53.7795 241.15 53.6653 241.436 53.494C241.721 53.2657 242.007 52.9231 242.178 52.4664L247.202 37.052H249.999V36.9949Z" fill="black"/>
</svg>
