<svg width="178" height="59" viewBox="0 0 178 59" fill="none" xmlns="http://www.w3.org/2000/svg">
<path d="M69.3984 24.1719C68.5599 24.1719 67.7865 24.0833 67.0781 23.9062C66.3698 23.724 65.7188 23.4609 65.125 23.1172L65.6797 21.9141C66.112 22.1693 66.6615 22.3984 67.3281 22.6016C67.9948 22.8047 68.6745 22.9062 69.3672 22.9062C69.9818 22.9062 70.4505 22.8255 70.7734 22.6641C71.1016 22.5026 71.3281 22.2526 71.4531 21.9141C71.5781 21.5703 71.6406 21.1276 71.6406 20.5859C71.6406 20.2682 71.5547 20 71.3828 19.7812C71.2109 19.5573 70.8385 19.349 70.2656 19.1562L67.5391 18.25C66.7578 17.9896 66.1953 17.6589 65.8516 17.2578C65.5078 16.8516 65.3359 16.263 65.3359 15.4922C65.3359 14.7682 65.5 14.1901 65.8281 13.7578C66.1615 13.3255 66.6146 13.013 67.1875 12.8203C67.7604 12.6276 68.4062 12.5312 69.125 12.5312C70.0885 12.5312 70.8698 12.6068 71.4688 12.7578C72.0677 12.9036 72.5495 13.0911 72.9141 13.3203L72.5312 14.5469C72.1927 14.3646 71.7682 14.1953 71.2578 14.0391C70.7526 13.8776 70.1328 13.7969 69.3984 13.7969C68.5807 13.7969 67.9531 13.9036 67.5156 14.1172C67.0781 14.3307 66.8594 14.7917 66.8594 15.5C66.8594 15.8438 66.9323 16.125 67.0781 16.3438C67.2292 16.5573 67.5443 16.7474 68.0234 16.9141L70.8672 17.875C71.638 18.1354 72.2005 18.4792 72.5547 18.9062C72.9141 19.3333 73.0938 19.974 73.0938 20.8281C73.0938 21.8698 72.8047 22.6875 72.2266 23.2812C71.6536 23.875 70.7109 24.1719 69.3984 24.1719ZM75.1606 12.2422H76.6294V19.9062L80.5903 15.7188H82.1997L78.8325 19.3594L82.5356 24H80.8403L77.8716 20.1562L76.6294 21.3906V24H75.1606V12.2422ZM83.79 15.7188H85.2588V24H83.79V15.7188ZM83.7666 12.2422H85.2822V13.8672H83.7666V12.2422ZM87.8412 21.2031V12.2422H89.31V21.2188C89.31 21.6667 89.3517 22.0078 89.435 22.2422C89.5183 22.4714 89.6694 22.6276 89.8881 22.7109C90.1069 22.7891 90.422 22.8281 90.8334 22.8281H91.0912L90.9194 24.0625H90.4975C89.8933 24.0625 89.3933 23.9922 88.9975 23.8516C88.6069 23.7109 88.3152 23.4349 88.1225 23.0234C87.935 22.612 87.8412 22.0052 87.8412 21.2031ZM92.7987 21.2031V12.2422H94.2675V21.2188C94.2675 21.6667 94.3092 22.0078 94.3925 22.2422C94.4758 22.4714 94.6269 22.6276 94.8456 22.7109C95.0644 22.7891 95.3795 22.8281 95.7909 22.8281H96.0487L95.8769 24.0625H95.455C94.8508 24.0625 94.3508 23.9922 93.955 23.8516C93.5644 23.7109 93.2727 23.4349 93.08 23.0234C92.8925 22.612 92.7987 22.0052 92.7987 21.2031ZM101.495 12.7031H103.065V22.7891H108.136V24H101.495V12.7031ZM109.421 21.0781V18.1953C109.421 17.4141 109.689 16.7812 110.226 16.2969C110.762 15.8073 111.624 15.5625 112.812 15.5625C113.947 15.5625 114.783 15.7865 115.32 16.2344C115.856 16.6771 116.124 17.2917 116.124 18.0781V20.0469H110.89V21.2109C110.89 21.8828 111.023 22.3568 111.288 22.6328C111.559 22.9089 112.085 23.0469 112.867 23.0469C113.33 23.0469 113.695 23.0312 113.96 23C114.231 22.9635 114.429 22.8594 114.554 22.6875C114.684 22.5104 114.77 22.2135 114.812 21.7969H116.109C116.041 22.4479 115.898 22.9453 115.679 23.2891C115.466 23.6276 115.135 23.8594 114.687 23.9844C114.239 24.1094 113.632 24.1719 112.867 24.1719C111.632 24.1719 110.749 23.9141 110.218 23.3984C109.687 22.8828 109.421 22.1094 109.421 21.0781ZM114.702 19.0547V17.9219C114.702 17.4219 114.528 17.0911 114.179 16.9297C113.835 16.7682 113.38 16.6875 112.812 16.6875C112.229 16.6875 111.762 16.7891 111.413 16.9922C111.064 17.1953 110.89 17.5521 110.89 18.0625V19.0547H114.702ZM117.176 15.7188H118.652L121.144 22.4375L123.363 15.7188H124.801L121.871 24H120.387L117.176 15.7188ZM125.977 21.0781V18.1953C125.977 17.4141 126.245 16.7812 126.782 16.2969C127.318 15.8073 128.18 15.5625 129.368 15.5625C130.503 15.5625 131.339 15.7865 131.875 16.2344C132.412 16.6771 132.68 17.2917 132.68 18.0781V20.0469H127.446V21.2109C127.446 21.8828 127.578 22.3568 127.844 22.6328C128.115 22.9089 128.641 23.0469 129.422 23.0469C129.886 23.0469 130.25 23.0312 130.516 23C130.787 22.9635 130.985 22.8594 131.11 22.6875C131.24 22.5104 131.326 22.2135 131.368 21.7969H132.664C132.597 22.4479 132.453 22.9453 132.235 23.2891C132.021 23.6276 131.69 23.8594 131.243 23.9844C130.795 24.1094 130.188 24.1719 129.422 24.1719C128.188 24.1719 127.305 23.9141 126.774 23.3984C126.243 22.8828 125.977 22.1094 125.977 21.0781ZM131.258 19.0547V17.9219C131.258 17.4219 131.084 17.0911 130.735 16.9297C130.391 16.7682 129.935 16.6875 129.368 16.6875C128.784 16.6875 128.318 16.7891 127.969 16.9922C127.62 17.1953 127.446 17.5521 127.446 18.0625V19.0547H131.258ZM134.716 21.2031V12.2422H136.184V21.2188C136.184 21.6667 136.226 22.0078 136.309 22.2422C136.393 22.4714 136.544 22.6276 136.762 22.7109C136.981 22.7891 137.296 22.8281 137.708 22.8281H137.966L137.794 24.0625H137.372C136.768 24.0625 136.268 23.9922 135.872 23.8516C135.481 23.7109 135.19 23.4349 134.997 23.0234C134.809 22.612 134.716 22.0052 134.716 21.2031Z" fill="#727376"/>
<path d="M64.6152 54L68.8867 41.0273H72.3496L76.6738 54H73.9053L73.1846 51.5303H68.0869L67.3398 54H64.6152ZM68.7021 49.5088H72.5869L70.6797 42.9785L68.7021 49.5088ZM78.1905 50.8975V40.6846H80.5811V50.8623C80.5811 51.3779 80.7012 51.7529 80.9414 51.9873C81.1875 52.2158 81.6299 52.3301 82.2686 52.3301H82.5674L82.3829 54.1055H81.3809C80.3321 54.1055 79.5381 53.8682 78.9991 53.3936C78.46 52.9131 78.1905 52.0811 78.1905 50.8975ZM83.8731 50.8975V40.6846H86.2638V50.8623C86.2638 51.3779 86.3839 51.7529 86.6241 51.9873C86.8702 52.2158 87.3126 52.3301 87.9513 52.3301H88.2501L88.0655 54.1055H87.0636C86.0147 54.1055 85.2208 53.8682 84.6817 53.3936C84.1427 52.9131 83.8731 52.0811 83.8731 50.8975Z" fill="black"/>
<path d="M37.1773 1.02735C36.3213 0.29275 35.209 -0.07245 34.0842 0.01195C32.9595 0.09635 31.914 0.623351 31.1773 1.47735L16.6773 18.2973C16.5173 18.4825 16.3204 18.6324 16.0992 18.7372C15.878 18.842 15.6374 18.8996 15.3927 18.9062C15.148 18.9128 14.9047 18.8683 14.6782 18.7755C14.4517 18.6827 14.247 18.5437 14.0773 18.3673L7.42729 11.3673C7.04829 10.9407 6.58729 10.5949 6.07179 10.3503C5.55629 10.1058 4.99679 9.96745 4.42669 9.94375C3.85659 9.91995 3.28749 10.0113 2.75349 10.2122C2.21939 10.4131 1.73129 10.7195 1.31819 11.1131C0.905094 11.5067 0.575494 11.9796 0.349094 12.5033C0.122594 13.0271 0.00389429 13.591 9.42856e-05 14.1616C-0.00370571 14.7322 0.107395 15.2977 0.326795 15.8244C0.546195 16.3511 0.869494 16.8283 1.27729 17.2274L12.4973 29.0174C12.8951 29.4337 13.3731 29.7653 13.9024 29.9922C14.4317 30.219 15.0014 30.3364 15.5773 30.3374H15.6773C16.2703 30.322 16.8536 30.1823 17.3893 29.9274C17.925 29.6725 18.4013 29.3079 18.7873 28.8574L37.6173 7.02735C38.3531 6.17265 38.7199 5.06115 38.6374 3.93645C38.555 2.81165 38.0299 1.76555 37.1773 1.02735ZM35.7273 5.39735L16.8973 27.2274C16.7379 27.4123 16.5418 27.5619 16.3214 27.6669C16.1011 27.7719 15.8613 27.83 15.6173 27.8374C15.3726 27.8496 15.1282 27.8076 14.9018 27.7142C14.6753 27.6208 14.4722 27.4784 14.3073 27.2973L3.08729 15.5373C2.76779 15.1998 2.59479 14.7497 2.60609 14.285C2.61729 13.8204 2.81179 13.3791 3.14729 13.0574C3.48219 12.7482 3.92139 12.5768 4.37729 12.5774C4.60769 12.582 4.83509 12.6319 5.04609 12.7246C5.25719 12.8173 5.4479 12.9507 5.6073 13.1173L12.2473 20.1173C12.6561 20.5479 13.1505 20.8881 13.6988 21.1159C14.2471 21.3437 14.837 21.454 15.4305 21.4398C16.0241 21.4257 16.6081 21.2875 17.1449 21.0338C17.6817 20.7802 18.1594 20.4168 18.5473 19.9673L33.0773 3.10735C33.3025 2.84595 33.6 2.65695 33.9323 2.56415C34.2646 2.47135 34.617 2.47875 34.9451 2.58565C35.2731 2.69255 35.5623 2.89405 35.7762 3.16475C35.9901 3.43555 36.1192 3.76345 36.1473 4.10735C36.1809 4.57565 36.0301 5.03855 35.7273 5.39735Z" fill="#727376"/>
</svg>
