<svg width="151" height="45" viewBox="0 0 151 45" fill="none" xmlns="http://www.w3.org/2000/svg">
<path d="M23.2978 0C10.8748 0 0.803467 10.0711 0.803467 22.4941C0.803467 34.9176 10.8748 44.9879 23.2978 44.9879C35.7222 44.9879 45.7924 34.9176 45.7924 22.4941C45.7924 10.0719 35.7222 0.00107444 23.2975 0.00107444L23.2978 0ZM33.6136 32.4429C33.2107 33.1037 32.3457 33.3132 31.6849 32.9076C26.4035 29.6816 19.7548 28.951 11.9248 30.7399C11.1703 30.9118 10.4182 30.4391 10.2462 29.6843C10.0735 28.9295 10.5444 28.1774 11.3008 28.0054C19.8695 26.0478 27.2195 26.8907 33.1489 30.5143C33.8097 30.9199 34.0192 31.7821 33.6136 32.4429ZM36.3668 26.318C35.8592 27.1432 34.7793 27.4038 33.9547 26.8961C27.9083 23.1796 18.6914 22.1032 11.5396 24.2742C10.6121 24.5543 9.63246 24.0316 9.35096 23.1057C9.0716 22.1782 9.59459 21.2004 10.5205 20.9184C18.6898 18.4397 28.8457 19.6403 35.7893 23.9072C36.614 24.4149 36.8745 25.4947 36.3668 26.3183V26.318ZM36.6032 19.9401C29.3534 15.634 17.3921 15.2381 10.4703 17.3389C9.35875 17.676 8.1833 17.0485 7.84646 15.937C7.50962 14.8249 8.13656 13.6503 9.24889 13.3124C17.1947 10.9003 30.4037 11.3663 38.7505 16.3214C39.7524 16.9147 40.0801 18.206 39.4865 19.2044C38.8956 20.2042 37.6008 20.5337 36.6043 19.9401H36.6032ZM62.0031 20.7653C58.119 19.8391 57.4287 19.1891 57.4287 17.8232C57.4287 16.5328 58.6428 15.6644 60.4506 15.6644C62.2019 15.6644 63.9371 16.3238 65.7583 17.6814C65.812 17.7225 65.8819 17.7388 65.949 17.7281C66.0189 17.7179 66.078 17.6806 66.1183 17.6244L68.0147 14.9512C68.0926 14.8411 68.0711 14.6893 67.9663 14.6052C65.7986 12.8665 63.3596 12.0212 60.507 12.0212C56.3139 12.0212 53.3834 14.5378 53.3834 18.1385C53.3834 21.9998 55.911 23.3671 60.2786 24.4224C63.9935 25.2785 64.6221 25.9957 64.6221 27.2775C64.6221 28.6985 63.3543 29.5822 61.3128 29.5822C59.0457 29.5822 57.195 28.8167 55.1267 27.0277C55.0756 26.982 55.0058 26.9632 54.9413 26.9659C54.8715 26.9713 54.8097 27.0035 54.7667 27.0546L52.6393 29.5849C52.5507 29.6923 52.5614 29.8481 52.6635 29.9395C55.0703 32.0883 58.0304 33.2219 61.2268 33.2219C65.7449 33.2219 68.6647 30.7533 68.6647 26.931C68.6728 23.7058 66.7414 21.9195 62.0112 20.7688L62.0031 20.7653ZM78.8881 16.9349C76.9299 16.9349 75.3236 17.7063 73.9966 19.2871V17.5078C73.9966 17.3674 73.8838 17.2529 73.7441 17.2529H70.2656C70.126 17.2529 70.0131 17.3674 70.0131 17.5078V37.2779C70.0131 37.4176 70.126 37.5331 70.2656 37.5331H73.7441C73.8838 37.5331 73.9966 37.4176 73.9966 37.2779V31.0381C75.3236 32.5235 76.9299 33.2514 78.8881 33.2514C82.5278 33.2514 86.2131 30.4498 86.2131 25.094C86.2185 19.737 82.5331 16.9346 78.8908 16.9346L78.8881 16.9349ZM82.1678 25.094C82.1678 27.8201 80.489 29.7246 78.0822 29.7246C75.705 29.7246 73.9107 27.7342 73.9107 25.094C73.9107 22.4535 75.705 20.4636 78.0822 20.4636C80.4487 20.4634 82.1678 22.4103 82.1678 25.0937V25.094ZM95.6548 16.9349C90.9675 16.9349 87.2956 20.544 87.2956 25.1523C87.2956 29.7111 90.9434 33.281 95.5984 33.281C100.302 33.281 103.984 29.6843 103.984 25.094C103.984 20.5192 100.326 16.9354 95.6548 16.9354V16.9349ZM95.6548 29.7514C93.1621 29.7514 91.2818 27.7476 91.2818 25.0926C91.2818 22.4256 93.0976 20.4902 95.5984 20.4902C98.1072 20.4902 99.9983 22.4933 99.9983 25.1509C99.9983 27.8174 98.1717 29.7514 95.6548 29.7514ZM113.993 17.2529H110.165V13.3403C110.165 13.2001 110.052 13.0857 109.913 13.0857H106.434C106.295 13.0857 106.179 13.2001 106.179 13.3403V17.2529H104.508C104.369 17.2529 104.256 17.3674 104.256 17.5078V20.4967C104.256 20.6369 104.369 20.7516 104.508 20.7516H106.179V28.4863C106.179 31.6102 107.734 33.195 110.804 33.195C112.051 33.195 113.085 32.9372 114.06 32.3838C114.141 32.3408 114.189 32.2549 114.189 32.1636V29.3163C114.189 29.2303 114.143 29.147 114.068 29.1014C113.993 29.053 113.899 29.0504 113.821 29.0906C113.152 29.4264 112.505 29.5822 111.78 29.5822C110.665 29.5822 110.165 29.0745 110.165 27.941V20.7529H113.993C114.133 20.7529 114.245 20.6385 114.245 20.498V17.5094C114.251 17.369 114.138 17.2545 113.996 17.2545L113.993 17.2529ZM127.327 17.2682V16.7877C127.327 15.374 127.869 14.7436 129.084 14.7436C129.809 14.7436 130.392 14.8875 131.044 15.1051C131.125 15.1304 131.208 15.1177 131.273 15.0697C131.34 15.0216 131.377 14.9445 131.377 14.8628V11.9323C131.377 11.8203 131.308 11.7211 131.197 11.6881C130.51 11.4831 129.629 11.2728 128.307 11.2728C125.097 11.2728 123.397 13.0817 123.397 16.5019V17.2379H121.726C121.587 17.2379 121.471 17.3523 121.471 17.4925V20.4967C121.471 20.6369 121.587 20.7516 121.726 20.7516H123.397V32.6793C123.397 32.8217 123.513 32.9345 123.652 32.9345H127.128C127.27 32.9345 127.383 32.8217 127.383 32.6793V20.7524H130.631L135.605 32.6793C135.041 33.931 134.485 34.1808 133.728 34.1808C133.115 34.1808 132.468 33.9982 131.81 33.6356C131.748 33.6033 131.673 33.5979 131.608 33.6167C131.541 33.6409 131.485 33.6893 131.458 33.7537L130.279 36.3405C130.222 36.464 130.271 36.6064 130.389 36.6709C131.619 37.337 132.729 37.6217 134.101 37.6217C136.669 37.6217 138.09 36.4237 139.339 33.2058L145.372 17.6164C145.404 17.5379 145.394 17.4493 145.345 17.3797C145.3 17.3107 145.222 17.269 145.138 17.269H141.518C141.407 17.269 141.311 17.3381 141.276 17.4399L137.566 28.0323L133.505 17.4329C133.467 17.3343 133.373 17.269 133.268 17.269H127.327V17.2682ZM119.596 17.2529H116.118C115.978 17.2529 115.862 17.3674 115.862 17.5078V32.6793C115.862 32.8217 115.978 32.9345 116.118 32.9345H119.596C119.736 32.9345 119.851 32.8217 119.851 32.6793V17.5089C119.851 17.3684 119.739 17.254 119.596 17.254V17.2529ZM117.877 10.3445C116.499 10.3445 115.382 11.4598 115.382 12.8375C115.382 14.216 116.499 15.3326 117.877 15.3326C119.255 15.3326 120.37 14.216 120.37 12.8375C120.37 11.46 119.252 10.3445 117.877 10.3445ZM148.343 22.1312C146.968 22.1312 145.896 21.0258 145.896 19.6836C145.896 18.3413 146.981 17.2234 148.356 17.2234C149.732 17.2234 150.803 18.3284 150.803 19.6696C150.803 21.0119 149.718 22.1312 148.343 22.1312ZM148.356 17.4667C147.102 17.4667 146.154 18.4633 146.154 19.6836C146.154 20.9034 147.097 21.8865 148.343 21.8865C149.597 21.8865 150.546 20.8907 150.546 19.6696C150.546 18.4499 149.603 17.4667 148.356 17.4667ZM148.899 19.9213L149.592 20.8905H149.006L148.383 20.0014H147.849V20.8905H147.36V18.3215H148.504C149.103 18.3215 149.495 18.6269 149.495 19.141C149.498 19.5622 149.254 19.8195 148.902 19.9213H148.899ZM148.485 18.7623H147.849V19.5748H148.485C148.802 19.5748 148.993 19.4193 148.993 19.1681C148.993 18.9038 148.802 18.7623 148.485 18.7623Z" fill="#1ED760"/>
</svg>
