<svg width="178" height="59" viewBox="0 0 178 59" fill="none" xmlns="http://www.w3.org/2000/svg">
<path d="M67.7031 24V12.7031H69.1484L72.9922 18.9531L76.7969 12.7031H78.1875V24H76.7031V15.2422L73.5391 20.4219H72.375L69.2031 15.2578V24H67.7031ZM83.0434 24.1719C82.4341 24.1719 81.9367 24.0677 81.5513 23.8594C81.171 23.6458 80.8898 23.3672 80.7075 23.0234C80.5304 22.6745 80.4419 22.3021 80.4419 21.9062C80.4419 21.4896 80.5226 21.1406 80.6841 20.8594C80.8507 20.5729 81.1606 20.3151 81.6138 20.0859C82.0721 19.8516 82.7414 19.6068 83.6216 19.3516C84.0799 19.2161 84.4471 19.0964 84.7231 18.9922C84.9992 18.888 85.1997 18.7552 85.3247 18.5938C85.4497 18.4323 85.5122 18.2005 85.5122 17.8984C85.5122 17.6745 85.4757 17.4714 85.4028 17.2891C85.3351 17.1068 85.1919 16.9609 84.9731 16.8516C84.7596 16.7422 84.4315 16.6875 83.9888 16.6875C83.4367 16.6875 83.033 16.7448 82.7778 16.8594C82.5226 16.974 82.3585 17.125 82.2856 17.3125C82.2179 17.4948 82.1841 17.6979 82.1841 17.9219V18.2891H80.77V17.9141C80.77 17.0964 81.0434 16.5 81.5903 16.125C82.1372 15.75 82.9523 15.5625 84.0356 15.5625C85.1294 15.5625 85.8924 15.8177 86.3247 16.3281C86.7622 16.8385 86.9809 17.5208 86.9809 18.375V21.9062C86.9809 22.3438 87.0356 22.625 87.145 22.75C87.2596 22.875 87.494 22.9375 87.8481 22.9375L87.6763 24.0625H87.3794C86.8273 24.0625 86.4289 23.9557 86.1841 23.7422C85.9393 23.5234 85.7544 23.2188 85.6294 22.8281C85.5096 23.0156 85.3429 23.2135 85.1294 23.4219C84.921 23.6302 84.6476 23.8073 84.3091 23.9531C83.9757 24.099 83.5539 24.1719 83.0434 24.1719ZM83.2231 23.0781C83.52 23.0781 83.8299 23.0156 84.1528 22.8906C84.4757 22.7604 84.7622 22.5911 85.0122 22.3828C85.2674 22.1693 85.4341 21.9349 85.5122 21.6797V19.5C85.3976 19.6146 85.1971 19.7656 84.9106 19.9531C84.6294 20.1354 84.2257 20.3021 83.6997 20.4531C83.0591 20.6354 82.5877 20.8229 82.2856 21.0156C81.9888 21.2083 81.8403 21.4896 81.8403 21.8594C81.8403 22.276 81.9471 22.5833 82.1606 22.7812C82.3794 22.9792 82.7335 23.0781 83.2231 23.0781ZM88.5869 24L91.4306 19.7734L88.6338 15.7188H90.1884L92.2822 18.7578L94.3134 15.7188H95.8603L93.0244 19.8359L95.8994 24H94.3447L92.1806 20.8672L90.1494 24H88.5869ZM104.775 24.1719C103.937 24.1719 103.163 24.0833 102.455 23.9062C101.747 23.724 101.096 23.4609 100.502 23.1172L101.057 21.9141C101.489 22.1693 102.038 22.3984 102.705 22.6016C103.372 22.8047 104.051 22.9062 104.744 22.9062C105.359 22.9062 105.827 22.8255 106.15 22.6641C106.478 22.5026 106.705 22.2526 106.83 21.9141C106.955 21.5703 107.018 21.1276 107.018 20.5859C107.018 20.2682 106.932 20 106.76 19.7812C106.588 19.5573 106.215 19.349 105.643 19.1562L102.916 18.25C102.135 17.9896 101.572 17.6589 101.228 17.2578C100.885 16.8516 100.713 16.263 100.713 15.4922C100.713 14.7682 100.877 14.1901 101.205 13.7578C101.538 13.3255 101.991 13.013 102.564 12.8203C103.137 12.6276 103.783 12.5312 104.502 12.5312C105.465 12.5312 106.247 12.6068 106.846 12.7578C107.445 12.9036 107.926 13.0911 108.291 13.3203L107.908 14.5469C107.57 14.3646 107.145 14.1953 106.635 14.0391C106.129 13.8776 105.51 13.7969 104.775 13.7969C103.958 13.7969 103.33 13.9036 102.893 14.1172C102.455 14.3307 102.236 14.7917 102.236 15.5C102.236 15.8438 102.309 16.125 102.455 16.3438C102.606 16.5573 102.921 16.7474 103.4 16.9141L106.244 17.875C107.015 18.1354 107.577 18.4792 107.932 18.9062C108.291 19.3333 108.471 19.974 108.471 20.8281C108.471 21.8698 108.182 22.6875 107.603 23.2812C107.031 23.875 106.088 24.1719 104.775 24.1719ZM111.092 21.6328V16.8281H109.709V15.7188H111.147L111.327 13.1562H112.561V15.7188H114.639V16.8281H112.561V21.5391C112.561 22.0859 112.722 22.4375 113.045 22.5938C113.368 22.75 113.879 22.8281 114.577 22.8281H114.741L114.584 24.0625H114.366C113.235 24.0625 112.407 23.8854 111.881 23.5312C111.355 23.1771 111.092 22.5443 111.092 21.6328ZM119.331 24.1719C118.654 24.1719 118.104 24.0599 117.682 23.8359C117.266 23.612 116.961 23.3151 116.768 22.9453C116.576 22.5755 116.479 22.1719 116.479 21.7344V15.7188H117.948V21.7422C117.948 22.1536 118.099 22.474 118.401 22.7031C118.703 22.9323 119.11 23.0469 119.62 23.0469C120.339 23.0469 120.873 22.8906 121.222 22.5781C121.571 22.2656 121.745 21.9349 121.745 21.5859V15.7188H123.214V24H121.901L121.745 22.9609C121.537 23.3307 121.232 23.625 120.831 23.8438C120.435 24.0625 119.935 24.1719 119.331 24.1719ZM125.343 21.3828V18.2578C125.343 17.4245 125.619 16.7682 126.171 16.2891C126.723 15.8047 127.601 15.5625 128.804 15.5625C129.064 15.5625 129.372 15.5911 129.726 15.6484C130.08 15.7057 130.385 15.7812 130.64 15.875V12.2422H132.109V24H131.109L130.867 23.4531C130.627 23.6406 130.299 23.8073 129.882 23.9531C129.471 24.099 129.051 24.1719 128.624 24.1719C127.833 24.1719 127.195 24.0495 126.71 23.8047C126.231 23.5599 125.882 23.2292 125.663 22.8125C125.45 22.3906 125.343 21.9141 125.343 21.3828ZM130.64 22.5234V17.0312C130.421 16.9271 130.148 16.8438 129.82 16.7812C129.497 16.7188 129.163 16.6875 128.82 16.6875C128.242 16.6875 127.762 16.7943 127.382 17.0078C127.002 17.2214 126.812 17.5833 126.812 18.0938V21.4922C126.812 22.0078 126.994 22.3906 127.359 22.6406C127.729 22.8906 128.182 23.0156 128.718 23.0156C129.135 23.0156 129.518 22.9583 129.867 22.8438C130.216 22.7292 130.473 22.6224 130.64 22.5234ZM134.238 21.0781V18.1953C134.238 17.4141 134.506 16.7812 135.043 16.2969C135.579 15.8073 136.441 15.5625 137.629 15.5625C138.764 15.5625 139.6 15.7865 140.137 16.2344C140.673 16.6771 140.941 17.2917 140.941 18.0781V20.0469H135.707V21.2109C135.707 21.8828 135.84 22.3568 136.105 22.6328C136.376 22.9089 136.902 23.0469 137.683 23.0469C138.147 23.0469 138.512 23.0312 138.777 23C139.048 22.9635 139.246 22.8594 139.371 22.6875C139.501 22.5104 139.587 22.2135 139.629 21.7969H140.926C140.858 22.4479 140.715 22.9453 140.496 23.2891C140.282 23.6276 139.952 23.8594 139.504 23.9844C139.056 24.1094 138.449 24.1719 137.683 24.1719C136.449 24.1719 135.566 23.9141 135.035 23.3984C134.504 22.8828 134.238 22.1094 134.238 21.0781ZM139.519 19.0547V17.9219C139.519 17.4219 139.345 17.0911 138.996 16.9297C138.652 16.7682 138.196 16.6875 137.629 16.6875C137.045 16.6875 136.579 16.7891 136.23 16.9922C135.881 17.1953 135.707 17.5521 135.707 18.0625V19.0547H139.519ZM142.946 15.7188H144.414V16.5234C144.659 16.2422 144.979 16.013 145.375 15.8359C145.771 15.6536 146.269 15.5625 146.868 15.5625C147.55 15.5625 148.097 15.6745 148.508 15.8984C148.925 16.1172 149.227 16.4115 149.414 16.7812C149.602 17.1458 149.696 17.5469 149.696 17.9844V24H148.227V17.8984C148.227 17.487 148.065 17.1823 147.743 16.9844C147.42 16.7865 147.003 16.6875 146.493 16.6875C145.774 16.6875 145.248 16.8229 144.914 17.0938C144.581 17.3646 144.414 17.7005 144.414 18.1016V24H142.946V15.7188ZM152.598 21.6328V16.8281H151.216V15.7188H152.653L152.833 13.1562H154.067V15.7188H156.145V16.8281H154.067V21.5391C154.067 22.0859 154.229 22.4375 154.552 22.5938C154.874 22.75 155.385 22.8281 156.083 22.8281H156.247L156.091 24.0625H155.872C154.742 24.0625 153.914 23.8854 153.387 23.5312C152.861 23.1771 152.598 22.5443 152.598 21.6328ZM157.72 23.5L158.079 22.4219C158.262 22.5208 158.577 22.651 159.025 22.8125C159.473 22.9688 159.978 23.0469 160.54 23.0469C161.191 23.0469 161.631 22.9271 161.861 22.6875C162.09 22.4479 162.204 22.1536 162.204 21.8047C162.204 21.4818 162.16 21.2266 162.072 21.0391C161.988 20.8516 161.751 20.6849 161.361 20.5391L159.392 19.8203C158.793 19.6016 158.374 19.3438 158.134 19.0469C157.894 18.75 157.775 18.3438 157.775 17.8281C157.775 17.1302 157.967 16.5781 158.353 16.1719C158.738 15.7656 159.441 15.5625 160.462 15.5625C161.046 15.5625 161.579 15.6094 162.064 15.7031C162.553 15.7917 162.949 15.8958 163.251 16.0156L162.915 17.1406C162.759 17.0729 162.553 17.0052 162.298 16.9375C162.043 16.8698 161.777 16.8125 161.501 16.7656C161.225 16.7135 160.97 16.6875 160.736 16.6875C160.064 16.6875 159.629 16.7734 159.431 16.9453C159.238 17.112 159.142 17.3828 159.142 17.7578C159.142 18.013 159.189 18.2031 159.283 18.3281C159.381 18.4479 159.572 18.5625 159.853 18.6719L161.798 19.4297C162.262 19.6068 162.611 19.7969 162.845 20C163.085 20.1979 163.246 20.4375 163.329 20.7188C163.413 21 163.454 21.3568 163.454 21.7891C163.454 22.2214 163.363 22.6198 163.181 22.9844C163.004 23.3438 162.715 23.6328 162.314 23.8516C161.918 24.0651 161.392 24.1719 160.736 24.1719C159.965 24.1719 159.316 24.0859 158.79 23.9141C158.264 23.7422 157.908 23.6042 157.72 23.5Z" fill="#727376"/>
<path d="M67.7842 52.0664H71.5811V43.1807L67.9863 43.6553L67.749 41.6602L72.3896 41.0273H74.1914V52.0664H77.5225V54H67.7842V52.0664ZM84.2598 54.2373C83.0879 54.2373 82.1329 54.0176 81.3946 53.5781C80.6563 53.1328 80.1143 52.5586 79.7686 51.8555C79.4288 51.1465 79.2588 50.4023 79.2588 49.623V45.4658C79.2588 44.6689 79.4258 43.916 79.7598 43.207C80.0996 42.4922 80.6358 41.9121 81.3682 41.4668C82.1065 41.0156 83.0704 40.79 84.2598 40.79C85.1387 40.79 85.8858 40.9219 86.501 41.1855C87.1163 41.4492 87.6143 41.8037 87.9952 42.249C88.3819 42.6943 88.6631 43.1982 88.8389 43.7607C89.0147 44.3232 89.1026 44.9033 89.1026 45.501V49.5879C89.1026 50.168 89.0118 50.7363 88.8301 51.293C88.6485 51.8438 88.3614 52.3418 87.9688 52.7871C87.5821 53.2266 87.0811 53.5781 86.4659 53.8418C85.8565 54.1055 85.1211 54.2373 84.2598 54.2373ZM84.2598 52.2598C84.8809 52.2598 85.3584 52.1221 85.6924 51.8467C86.0264 51.5713 86.2549 51.2344 86.378 50.8359C86.5069 50.4316 86.5713 50.042 86.5713 49.667V45.3955C86.5713 45.0146 86.5098 44.6221 86.3868 44.2178C86.2696 43.8135 86.044 43.4736 85.71 43.1982C85.3819 42.917 84.8985 42.7764 84.2598 42.7764C83.6153 42.7764 83.1231 42.917 82.7832 43.1982C82.4434 43.4736 82.209 43.8135 82.0801 44.2178C81.9571 44.6221 81.8955 45.0146 81.8955 45.3955V49.667C81.8955 50.042 81.9629 50.4316 82.0977 50.8359C82.2383 51.2344 82.4786 51.5713 82.8184 51.8467C83.1641 52.1221 83.6446 52.2598 84.2598 52.2598ZM96.2003 54.2373C95.0284 54.2373 94.0733 54.0176 93.335 53.5781C92.5968 53.1328 92.0548 52.5586 91.7091 51.8555C91.3692 51.1465 91.1993 50.4023 91.1993 49.623V45.4658C91.1993 44.6689 91.3663 43.916 91.7003 43.207C92.0401 42.4922 92.5763 41.9121 93.3087 41.4668C94.047 41.0156 95.0108 40.79 96.2003 40.79C97.0792 40.79 97.8263 40.9219 98.4415 41.1855C99.0567 41.4492 99.5548 41.8037 99.9356 42.249C100.322 42.6943 100.604 43.1982 100.779 43.7607C100.955 44.3232 101.043 44.9033 101.043 45.501V49.5879C101.043 50.168 100.952 50.7363 100.771 51.293C100.589 51.8438 100.302 52.3418 99.9093 52.7871C99.5225 53.2266 99.0216 53.5781 98.4063 53.8418C97.797 54.1055 97.0616 54.2373 96.2003 54.2373ZM96.2003 52.2598C96.8214 52.2598 97.2989 52.1221 97.6329 51.8467C97.9669 51.5713 98.1954 51.2344 98.3184 50.8359C98.4473 50.4316 98.5118 50.042 98.5118 49.667V45.3955C98.5118 45.0146 98.4503 44.6221 98.3272 44.2178C98.21 43.8135 97.9845 43.4736 97.6505 43.1982C97.3223 42.917 96.8389 42.7764 96.2003 42.7764C95.5557 42.7764 95.0636 42.917 94.7237 43.1982C94.3839 43.4736 94.1495 43.8135 94.0206 44.2178C93.8975 44.6221 93.836 45.0146 93.836 45.3955V49.667C93.836 50.042 93.9034 50.4316 94.0382 50.8359C94.1788 51.2344 94.419 51.5713 94.7589 51.8467C95.1046 52.1221 95.585 52.2598 96.2003 52.2598Z" fill="black"/>
<path d="M50.198 8.51742L25.5155 0.0667161C25.2482 -0.0222387 24.9809 -0.0222387 24.7136 0.0667161C13.9762 4.15864 2.25871 8.38399 1.18943 8.42846C0.654789 8.42846 0.164703 8.82876 0.0310427 9.36249C-0.102617 9.89622 0.209256 10.4744 0.699342 10.6968L7.15957 13.4989V16.6123C6.22395 16.7902 5.55565 17.6353 5.55565 18.5693C5.55565 19.0141 5.68931 19.4589 5.95663 19.7702L5.11012 24.7517C5.06556 24.9741 5.15467 25.1964 5.28833 25.3299C5.42199 25.5078 5.64476 25.5967 5.86752 25.5967H9.34268C9.56545 25.5967 9.74366 25.5078 9.87732 25.3299C10.011 25.152 10.1001 24.9741 10.0555 24.7517L9.34268 19.5923C9.52089 19.2809 9.61 18.9251 9.61 18.5693C9.61 17.8577 9.20902 17.1905 8.62983 16.8347L8.80804 14.2105L12.9515 15.9896V27.02C12.9515 28.6657 14.2881 30 15.9366 30H36.743C38.3914 30 39.728 28.6657 39.728 27.02V15.278L50.2871 10.6968C50.7327 10.5189 51 10.0741 51 9.58488C51 9.09563 50.6881 8.65085 50.198 8.51742ZM6.71404 24.1735L7.47144 19.6812C7.51599 19.4144 7.42689 19.1475 7.20412 19.0141C7.07046 18.9251 7.02591 18.7472 7.02591 18.6138C7.02591 18.3024 7.29323 18.0801 7.56055 18.0801C7.87242 18.0801 8.09519 18.3469 8.09519 18.6138C8.09519 18.7917 8.00608 18.8807 7.96153 18.9696C7.82787 19.1475 7.73876 19.3254 7.78331 19.5478L8.49617 24.1735H6.71404ZM37.3221 27.02C37.3221 27.3758 37.0548 27.6427 36.6984 27.6427H15.892C15.5356 27.6427 15.2683 27.3758 15.2683 27.02V17.0126L25.0254 21.238C25.3373 21.3714 25.6492 21.3714 25.9611 21.238L37.3221 16.3454V27.02ZM25.5155 18.8807L12.4614 13.232L23.1096 11.8087C23.7334 12.1646 24.5799 12.3425 25.471 12.3425C27.4759 12.3425 28.9016 11.4974 28.9016 10.2965C28.9016 9.1401 27.4313 8.25056 25.471 8.25056C23.9562 8.25056 22.7532 8.73981 22.2631 9.49592L8.22885 11.364L4.70914 9.85174C10.4565 7.98369 21.4612 3.84729 25.1591 2.4685L46.5892 9.76279L25.5155 18.8807ZM23.7779 10.2965C24.0007 10.1186 24.5799 9.89622 25.5155 9.89622C26.4511 9.89622 27.0303 10.1186 27.2531 10.2965C27.0303 10.4744 26.4511 10.6968 25.5155 10.6968C24.5799 10.6968 24.0007 10.4744 23.7779 10.2965Z" fill="#727376"/>
</svg>
