<svg width="76" height="31" viewBox="0 0 76 31" fill="none" xmlns="http://www.w3.org/2000/svg">
<path d="M74 7.5H67.2C66.9 7 66.5 6.5 66.1 6.1C66 5.9 65.8 5.8 65.7 5.6C65.5 5.4 65.4 5.3 65.2 5.1C65 4.9 64.8 4.7 64.6 4.5C62 2.2 58.6 1 55.1 1C50.6 1 46.5 3.1 43.8 6.3C43.6 6.5 43.5 6.7 43.4 6.9L43.3 7C43.1 7.2 43 7.4 42.8 7.7C42.5 7.1 41.9 6.6 41.1 6.2C40.2 5.8 39.2 5.5 38.2 5.4C36.2 5.3 34.1 5.8 33.1 7.4C30.5 3.5 26 1 21 1C15.9 1 11.5 3.6 8.8 7.5H2.7C1.8 7.5 1 8.2 1 9.2C1 10.1 1.7 10.9 2.7 10.9H7.1C6.6 12.4 6.3 14 6.3 15.6C6.3 23.7 12.9 30.2 20.9 30.2C29 30.2 35.5 23.6 35.5 15.6C35.5 13.6 35.1 11.6 34.3 9.9C35 9.6 35.9 9.4 37 9.3C37.9 9.2 38.9 9.3 39.8 9.6C40.4 10.1 40.8 10.9 40.8 11.7V11.8C40.5 13 40.3 14.3 40.3 15.7C40.3 23.8 46.9 30.3 55 30.3C63.1 30.3 69.7 23.8 69.7 15.7C69.7 14 69.4 12.4 68.9 10.9H74C74.9 10.9 75.7 10.2 75.7 9.2C75.7 8.2 74.9 7.5 74 7.5ZM20.9 26.8C14.7 26.8 9.6 21.7 9.6 15.5C9.6 9.3 14.7 4.2 20.9 4.2C27.2 4.3 32.2 9.3 32.2 15.6C32.2 21.8 27.2 26.8 20.9 26.8ZM55.1 26.7C48.9 26.7 44 21.7 44 15.7C44 9.7 49 4.7 55.1 4.7C61.2 4.7 66.2 9.7 66.2 15.7C66.2 21.7 61.2 26.7 55.1 26.7Z" fill="#727376" stroke="#727376" stroke-width="0.3"/>
</svg>
