<svg width="187" height="60" viewBox="0 0 187 60" fill="none" xmlns="http://www.w3.org/2000/svg">
<path d="M95.9141 25V14.9922H92.6562V13.7031H100.75V14.9922H97.4844V25H95.9141ZM101.989 22.0781V19.1953C101.989 18.4141 102.257 17.7812 102.793 17.2969C103.33 16.8073 104.192 16.5625 105.379 16.5625C106.515 16.5625 107.351 16.7865 107.887 17.2344C108.424 17.6771 108.692 18.2917 108.692 19.0781V21.0469H103.458V22.2109C103.458 22.8828 103.59 23.3568 103.856 23.6328C104.127 23.9089 104.653 24.0469 105.434 24.0469C105.898 24.0469 106.262 24.0312 106.528 24C106.799 23.9635 106.997 23.8594 107.122 23.6875C107.252 23.5104 107.338 23.2135 107.379 22.7969H108.676C108.609 23.4479 108.465 23.9453 108.247 24.2891C108.033 24.6276 107.702 24.8594 107.254 24.9844C106.806 25.1094 106.2 25.1719 105.434 25.1719C104.2 25.1719 103.317 24.9141 102.786 24.3984C102.254 23.8828 101.989 23.1094 101.989 22.0781ZM107.27 20.0547V18.9219C107.27 18.4219 107.096 18.0911 106.747 17.9297C106.403 17.7682 105.947 17.6875 105.379 17.6875C104.796 17.6875 104.33 17.7891 103.981 17.9922C103.632 18.1953 103.458 18.5521 103.458 19.0625V20.0547H107.27ZM112.876 25.1719C112.267 25.1719 111.769 25.0677 111.384 24.8594C111.004 24.6458 110.722 24.3672 110.54 24.0234C110.363 23.6745 110.274 23.3021 110.274 22.9062C110.274 22.4896 110.355 22.1406 110.517 21.8594C110.683 21.5729 110.993 21.3151 111.446 21.0859C111.905 20.8516 112.574 20.6068 113.454 20.3516C113.912 20.2161 114.28 20.0964 114.556 19.9922C114.832 19.888 115.032 19.7552 115.157 19.5938C115.282 19.4323 115.345 19.2005 115.345 18.8984C115.345 18.6745 115.308 18.4714 115.235 18.2891C115.168 18.1068 115.024 17.9609 114.806 17.8516C114.592 17.7422 114.264 17.6875 113.821 17.6875C113.269 17.6875 112.866 17.7448 112.61 17.8594C112.355 17.974 112.191 18.125 112.118 18.3125C112.05 18.4948 112.017 18.6979 112.017 18.9219V19.2891H110.603V18.9141C110.603 18.0964 110.876 17.5 111.423 17.125C111.97 16.75 112.785 16.5625 113.868 16.5625C114.962 16.5625 115.725 16.8177 116.157 17.3281C116.595 17.8385 116.813 18.5208 116.813 19.375V22.9062C116.813 23.3438 116.868 23.625 116.978 23.75C117.092 23.875 117.326 23.9375 117.681 23.9375L117.509 25.0625H117.212C116.66 25.0625 116.261 24.9557 116.017 24.7422C115.772 24.5234 115.587 24.2188 115.462 23.8281C115.342 24.0156 115.175 24.2135 114.962 24.4219C114.754 24.6302 114.48 24.8073 114.142 24.9531C113.808 25.099 113.386 25.1719 112.876 25.1719ZM113.056 24.0781C113.353 24.0781 113.662 24.0156 113.985 23.8906C114.308 23.7604 114.595 23.5911 114.845 23.3828C115.1 23.1693 115.267 22.9349 115.345 22.6797V20.5C115.23 20.6146 115.03 20.7656 114.743 20.9531C114.462 21.1354 114.058 21.3021 113.532 21.4531C112.892 21.6354 112.42 21.8229 112.118 22.0156C111.821 22.2083 111.673 22.4896 111.673 22.8594C111.673 23.276 111.78 23.5833 111.993 23.7812C112.212 23.9792 112.566 24.0781 113.056 24.0781ZM122.443 25.1719C121.62 25.1719 120.961 25.0417 120.466 24.7812C119.977 24.5156 119.622 24.1667 119.404 23.7344C119.185 23.2969 119.076 22.8229 119.076 22.3125V19.1562C119.076 18.375 119.372 17.7474 119.966 17.2734C120.565 16.7995 121.378 16.5625 122.404 16.5625C123.065 16.5625 123.641 16.6406 124.13 16.7969C124.62 16.9479 124.997 17.224 125.263 17.625C125.534 18.026 125.669 18.599 125.669 19.3438L124.271 19.4766C124.271 18.9714 124.214 18.5911 124.099 18.3359C123.984 18.0807 123.794 17.9089 123.529 17.8203C123.263 17.7318 122.901 17.6875 122.443 17.6875C121.813 17.6875 121.339 17.8021 121.021 18.0312C120.703 18.2552 120.544 18.6432 120.544 19.1953V22.4375C120.544 23.0312 120.711 23.4479 121.044 23.6875C121.383 23.9271 121.849 24.0469 122.443 24.0469C122.927 24.0469 123.294 24.013 123.544 23.9453C123.8 23.8724 123.979 23.7318 124.083 23.5234C124.188 23.3099 124.258 22.9948 124.294 22.5781H125.654C125.602 23.2135 125.466 23.7214 125.247 24.1016C125.029 24.4818 124.693 24.7552 124.24 24.9219C123.792 25.0885 123.193 25.1719 122.443 25.1719ZM127.533 13.2422H129.002V17.5C129.247 17.2188 129.57 16.9922 129.971 16.8203C130.372 16.6484 130.872 16.5625 131.471 16.5625C132.153 16.5625 132.7 16.6719 133.111 16.8906C133.523 17.1042 133.82 17.3932 134.002 17.7578C134.189 18.1224 134.283 18.5234 134.283 18.9609V25H132.814V18.8828C132.814 18.4714 132.656 18.1693 132.338 17.9766C132.02 17.7839 131.606 17.6875 131.096 17.6875C130.377 17.6875 129.848 17.8203 129.51 18.0859C129.171 18.3464 129.002 18.6771 129.002 19.0781V25H127.533V13.2422ZM136.319 22.0781V19.1953C136.319 18.4141 136.587 17.7812 137.123 17.2969C137.66 16.8073 138.522 16.5625 139.709 16.5625C140.845 16.5625 141.681 16.7865 142.217 17.2344C142.754 17.6771 143.022 18.2917 143.022 19.0781V21.0469H137.787V22.2109C137.787 22.8828 137.92 23.3568 138.186 23.6328C138.457 23.9089 138.983 24.0469 139.764 24.0469C140.228 24.0469 140.592 24.0312 140.858 24C141.129 23.9635 141.327 23.8594 141.452 23.6875C141.582 23.5104 141.668 23.2135 141.709 22.7969H143.006C142.939 23.4479 142.795 23.9453 142.577 24.2891C142.363 24.6276 142.032 24.8594 141.584 24.9844C141.136 25.1094 140.53 25.1719 139.764 25.1719C138.53 25.1719 137.647 24.9141 137.116 24.3984C136.584 23.8828 136.319 23.1094 136.319 22.0781ZM141.6 20.0547V18.9219C141.6 18.4219 141.426 18.0911 141.077 17.9297C140.733 17.7682 140.277 17.6875 139.709 17.6875C139.126 17.6875 138.66 17.7891 138.311 17.9922C137.962 18.1953 137.787 18.5521 137.787 19.0625V20.0547H141.6ZM145.026 16.7188H146.495V17.8906C146.615 17.5781 146.831 17.3281 147.143 17.1406C147.461 16.9479 147.821 16.8099 148.222 16.7266C148.623 16.6432 149.005 16.6016 149.37 16.6016L149.323 17.8594C148.854 17.8594 148.404 17.9245 147.972 18.0547C147.539 18.1797 147.185 18.3438 146.909 18.5469C146.633 18.75 146.495 18.9688 146.495 19.2031V25H145.026V16.7188ZM150.437 24.5L150.796 23.4219C150.979 23.5208 151.294 23.651 151.742 23.8125C152.189 23.9688 152.695 24.0469 153.257 24.0469C153.908 24.0469 154.348 23.9271 154.577 23.6875C154.807 23.4479 154.921 23.1536 154.921 22.8047C154.921 22.4818 154.877 22.2266 154.788 22.0391C154.705 21.8516 154.468 21.6849 154.077 21.5391L152.109 20.8203C151.51 20.6016 151.091 20.3438 150.851 20.0469C150.611 19.75 150.492 19.3438 150.492 18.8281C150.492 18.1302 150.684 17.5781 151.07 17.1719C151.455 16.7656 152.158 16.5625 153.179 16.5625C153.762 16.5625 154.296 16.6094 154.781 16.7031C155.27 16.7917 155.666 16.8958 155.968 17.0156L155.632 18.1406C155.476 18.0729 155.27 18.0052 155.015 17.9375C154.76 17.8698 154.494 17.8125 154.218 17.7656C153.942 17.7135 153.687 17.6875 153.452 17.6875C152.781 17.6875 152.346 17.7734 152.148 17.9453C151.955 18.112 151.859 18.3828 151.859 18.7578C151.859 19.013 151.906 19.2031 151.999 19.3281C152.098 19.4479 152.288 19.5625 152.57 19.6719L154.515 20.4297C154.979 20.6068 155.327 20.7969 155.562 21C155.801 21.1979 155.963 21.4375 156.046 21.7188C156.13 22 156.171 22.3568 156.171 22.7891C156.171 23.2214 156.08 23.6198 155.898 23.9844C155.721 24.3438 155.432 24.6328 155.031 24.8516C154.635 25.0651 154.109 25.1719 153.452 25.1719C152.682 25.1719 152.033 25.0859 151.507 24.9141C150.981 24.7422 150.624 24.6042 150.437 24.5Z" fill="#727376"/>
<path d="M98.2139 55.1934C97.0479 55.1934 96.1162 55.0352 95.4189 54.7188C94.7217 54.3965 94.2178 53.9629 93.9072 53.418C93.5967 52.8672 93.4414 52.2549 93.4414 51.5811C93.4414 50.8076 93.6963 50.1309 94.2061 49.5508C94.7158 48.9648 95.3984 48.499 96.2539 48.1533C95.791 47.9424 95.3662 47.6992 94.9795 47.4238C94.5986 47.1426 94.291 46.8086 94.0566 46.4219C93.8281 46.0352 93.7139 45.5723 93.7139 45.0332C93.7139 44.4766 93.8633 43.9551 94.1621 43.4688C94.4668 42.9766 94.9502 42.5781 95.6123 42.2734C96.2744 41.9688 97.1416 41.8164 98.2139 41.8164C99.3857 41.8164 100.3 41.9746 100.956 42.291C101.618 42.6016 102.084 42.9971 102.354 43.4775C102.623 43.958 102.758 44.4531 102.758 44.9629C102.758 45.4492 102.638 45.9004 102.397 46.3164C102.157 46.7324 101.844 47.0957 101.457 47.4062C101.076 47.7168 100.669 47.957 100.235 48.127C100.739 48.3613 101.202 48.6338 101.624 48.9443C102.052 49.2549 102.392 49.624 102.644 50.0518C102.901 50.4736 103.03 50.9805 103.03 51.5723C103.03 52.2461 102.872 52.8584 102.556 53.4092C102.239 53.9541 101.729 54.3877 101.026 54.71C100.323 55.0322 99.3857 55.1934 98.2139 55.1934ZM96.1484 45.1387C96.1484 45.6484 96.3682 46.0615 96.8076 46.3779C97.2529 46.6943 97.7803 46.9756 98.3896 47.2217C98.8701 47.0283 99.3066 46.7588 99.6992 46.4131C100.098 46.0615 100.297 45.6543 100.297 45.1914C100.297 44.9336 100.253 44.6846 100.165 44.4443C100.077 44.2041 99.8896 44.0049 99.6025 43.8467C99.3154 43.6885 98.8701 43.6094 98.2666 43.6094C97.4639 43.6094 96.9102 43.7646 96.6055 44.0752C96.3008 44.3857 96.1484 44.7402 96.1484 45.1387ZM98.2842 53.3564C98.9229 53.3564 99.4092 53.2715 99.7432 53.1016C100.077 52.9316 100.303 52.7002 100.42 52.4072C100.543 52.1084 100.604 51.7744 100.604 51.4053C100.604 50.8896 100.358 50.4443 99.8662 50.0693C99.3799 49.6943 98.8086 49.3721 98.1523 49.1025C97.3789 49.3896 96.8018 49.7354 96.4209 50.1396C96.04 50.5381 95.8496 50.96 95.8496 51.4053C95.8496 51.7744 95.917 52.1084 96.0518 52.4072C96.1924 52.7002 96.4385 52.9316 96.79 53.1016C97.1475 53.2715 97.6455 53.3564 98.2842 53.3564Z" fill="black"/>
<path d="M74 7.5H67.2C66.9 7 66.5 6.5 66.1 6.1C66 5.9 65.8 5.8 65.7 5.6C65.5 5.4 65.4 5.3 65.2 5.1C65 4.9 64.8 4.7 64.6 4.5C62 2.2 58.6 1 55.1 1C50.6 1 46.5 3.1 43.8 6.3C43.6 6.5 43.5 6.7 43.4 6.9L43.3 7C43.1 7.2 43 7.4 42.8 7.7C42.5 7.1 41.9 6.6 41.1 6.2C40.2 5.8 39.2 5.5 38.2 5.4C36.2 5.3 34.1 5.8 33.1 7.4C30.5 3.5 26 1 21 1C15.9 1 11.5 3.6 8.8 7.5H2.7C1.8 7.5 1 8.2 1 9.2C1 10.1 1.7 10.9 2.7 10.9H7.1C6.6 12.4 6.3 14 6.3 15.6C6.3 23.7 12.9 30.2 20.9 30.2C29 30.2 35.5 23.6 35.5 15.6C35.5 13.6 35.1 11.6 34.3 9.9C35 9.6 35.9 9.4 37 9.3C37.9 9.2 38.9 9.3 39.8 9.6C40.4 10.1 40.8 10.9 40.8 11.7V11.8C40.5 13 40.3 14.3 40.3 15.7C40.3 23.8 46.9 30.3 55 30.3C63.1 30.3 69.7 23.8 69.7 15.7C69.7 14 69.4 12.4 68.9 10.9H74C74.9 10.9 75.7 10.2 75.7 9.2C75.7 8.2 74.9 7.5 74 7.5ZM20.9 26.8C14.7 26.8 9.6 21.7 9.6 15.5C9.6 9.3 14.7 4.2 20.9 4.2C27.2 4.3 32.2 9.3 32.2 15.6C32.2 21.8 27.2 26.8 20.9 26.8ZM55.1 26.7C48.9 26.7 44 21.7 44 15.7C44 9.7 49 4.7 55.1 4.7C61.2 4.7 66.2 9.7 66.2 15.7C66.2 21.7 61.2 26.7 55.1 26.7Z" fill="#727376" stroke="#727376" stroke-width="0.3"/>
</svg>
