<svg width="19" height="16" viewBox="0 0 19 16" fill="none" xmlns="http://www.w3.org/2000/svg">
<path d="M19 1.82087C18.2934 2.12967 17.5406 2.33436 16.7556 2.43374C17.5631 1.95338 18.1794 1.19853 18.4692 0.288689C17.7163 0.735919 16.8851 1.05182 15.9992 1.22811C15.2843 0.469711 14.2654 0 13.1539 0C10.9974 0 9.26131 1.74396 9.26131 3.88192C9.26131 4.18954 9.28744 4.48532 9.35156 4.76691C6.11325 4.60955 3.24781 3.06318 1.32287 0.707524C0.986812 1.28845 0.789688 1.95338 0.789688 2.66919C0.789688 4.01325 1.48438 5.20468 2.51988 5.89445C1.89406 5.88262 1.28013 5.7016 0.76 5.41646C0.76 5.42829 0.76 5.44367 0.76 5.45905C0.76 7.345 2.11019 8.91149 3.88075 9.27235C3.56369 9.35872 3.21812 9.40013 2.8595 9.40013C2.61013 9.40013 2.35837 9.38593 2.12206 9.33387C2.62675 10.8708 4.05888 12.0007 5.76175 12.0374C4.4365 13.0703 2.75381 13.6926 0.932188 13.6926C0.61275 13.6926 0.306375 13.6784 0 13.6394C1.72544 14.748 3.77031 15.381 5.9755 15.381C13.1432 15.381 17.062 9.4652 17.062 4.33743C17.062 4.16587 17.0561 4.00023 17.0478 3.83577C17.8208 3.28916 18.4704 2.60648 19 1.82087Z" fill="#A8A8A0"/>
</svg>
