<svg width="151" height="38" viewBox="0 0 151 38" fill="none" xmlns="http://www.w3.org/2000/svg">
<path d="M49.2377 14.7529C49.2377 12.0631 46.6221 9.20518 42.0929 9.20518C37.0104 9.20518 31.4235 12.9349 30.5693 20.3769C29.6974 27.8912 34.3733 31.2319 39.0864 31.2319C43.8014 31.2319 46.2683 29.3944 48.792 26.945C46.6221 24.2181 43.8189 25.4789 43.2794 25.7585C42.6871 26.0536 41.9267 26.4622 40.3668 26.4622C38.5488 26.4622 36.6917 25.647 36.6917 22.2496C48.3482 21.1002 49.2377 17.4447 49.2377 14.7529ZM43.4671 15.1986C43.3928 16.0333 43.0585 17.4623 37.157 18.2598C38.4002 13.842 40.7753 13.5097 41.87 13.5097C42.8924 13.5097 43.5414 14.3072 43.4671 15.1986ZM23.7236 15.9219L21.0122 24.4409C20.938 23.7724 19.1004 9.64892 19.1004 9.64892C14.8331 9.64892 12.5518 12.6925 11.3438 15.9043L8.04015 24.4585C8.02061 23.8467 7.57687 15.9962 7.57687 15.9962C7.31688 12.0631 3.71613 9.66847 0.803467 9.66847L4.32993 31.0658C8.80253 31.0462 11.2148 28.0221 12.4756 24.8104C12.4756 24.8104 15.1674 17.8513 15.2788 17.5385C15.2983 17.8337 17.2082 31.0658 17.2082 31.0658C21.6984 31.0658 24.1106 28.2254 25.4106 25.1271L31.7011 9.66847C27.2657 9.66847 24.9277 12.6925 23.7216 15.9238L23.7236 15.9219ZM65.7147 9.16804C62.9506 9.16804 60.8355 10.6713 59.0527 12.8783V12.8587L60.6518 0C56.9767 0 53.9898 3.1922 53.4131 7.94237L50.6314 30.8976C52.7465 30.8976 54.9926 30.2858 56.1987 28.7278C57.2739 30.1177 58.8905 31.2319 61.2832 31.2319C67.4819 31.2319 71.7316 24.0324 71.7316 17.2766C71.6945 11.115 68.7075 9.16804 65.7186 9.16804H65.7147ZM65.14 20.2088C64.491 23.9757 62.3935 26.5365 60.3703 26.5365C58.3295 26.5365 57.4576 25.6275 57.4576 25.6275C57.8486 22.3239 58.089 20.3026 58.8299 18.557C59.5727 16.8133 61.336 14.0296 63.1735 14.0296C64.9719 14.0296 65.789 16.4223 65.14 20.2088ZM87.2058 9.66847H82.8818L82.9014 9.44562C83.1985 6.62483 83.867 5.14114 86.074 4.89874C87.5792 4.75018 88.2458 3.97216 88.412 3.11791C88.5429 2.44937 88.9515 0.129017 88.9515 0.129017C80.2663 0.0742826 77.5374 3.8236 76.8317 9.53945L76.8141 9.66847H76.7222C75.3109 9.66847 73.7509 11.2636 73.4929 13.2868L73.3991 14.0296H76.2941L73.8643 34.1094L73.1215 37.7082C73.2133 37.7082 73.3248 37.7277 73.4186 37.7277C77.4826 37.5792 80.0806 34.3674 80.6553 29.7111L82.5495 14.0296H83.9042C85.2393 14.0296 86.7973 12.6925 87.0768 10.466L87.2058 9.66847ZM109.698 9.29705C104.705 9.29705 99.9922 12.9721 98.5457 18.7427C97.0991 24.5152 99.2885 31.3433 106.637 31.3433C113.967 31.3433 118.197 24.2357 118.197 18.3165C118.197 12.4326 114.208 9.29705 109.698 9.29705ZM111.721 20.0231C111.461 22.6406 110.31 26.6108 107.157 26.6108C103.982 26.6108 104.428 21.972 104.742 19.7631C105.077 17.4075 106.394 14.0472 109.235 14.0472C111.776 14.0472 112.018 17.0733 111.721 20.0231ZM142.861 15.9219L140.15 24.4409C140.075 23.7724 138.24 9.64892 138.24 9.64892C133.971 9.64892 131.689 12.6925 130.481 15.9043C130.481 15.9043 127.44 23.79 127.178 24.4585C127.16 23.8467 126.714 15.9962 126.714 15.9962C126.454 12.0631 122.856 9.66847 119.941 9.66847L123.45 31.0658C127.921 31.0462 130.335 28.0221 131.596 24.8104C131.596 24.8104 134.287 17.8513 134.379 17.5385C134.418 17.8337 136.309 31.0658 136.309 31.0658C140.801 31.0658 143.213 28.2254 144.511 25.1271L150.803 9.66847C146.386 9.66847 144.048 12.6925 142.859 15.9238L142.861 15.9219ZM91.2875 0.129017L87.6515 29.4706L86.9087 33.087C87.0006 33.087 87.112 33.1066 87.2039 33.1066C91.1194 33.0499 93.903 29.6172 94.423 25.2932L96.5205 8.46235C97.1519 3.32121 94.0887 0.129017 91.2875 0.129017Z" fill="#4353FF"/>
</svg>
